<svg id="f8e0c896-181e-46e3-9700-e5e76b90cc65" data-name="Layer 1" xmlns="http://www.w3.org/2000/svg" viewBox="0 0 401.876 102.2">
  <defs>
    <style>
      .a544760d-d506-487c-a66e-15c8d67cf9f2 {
        fill: #fff;
      }

      .fef2a27d-d3d5-4547-9050-6514ff66bf1c {
        fill: #0a0c0d;
      }

      .bb6b95a2-d9c3-430c-a4fe-3473d84e0acb {
        fill: #090b0c;
      }

      .f9043f32-7ddf-44fc-890b-bf3aa351845d {
        fill: #0a0b0c;
      }

      .a73dccb2-807b-48a9-8235-dc947ddacefc {
        fill: #0b0d0d;
      }

      .e83adddf-63cd-48f4-8508-66fb82835759 {
        fill: #0a0c0c;
      }

      .b5faf211-91b2-49fa-859c-e81deb3acda3 {
        fill: #0c0e0e;
      }

      .e3351634-b7bc-4a03-9ca8-5f3ebaf5813d {
        fill: #0d0f0f;
      }

      .bcc6bcef-6f4d-4ed2-98ed-db12f0434776 {
        fill: #0c0d0e;
      }

      .adf9366f-869d-4926-a46b-a996644a598f {
        fill: #0b0d0e;
      }

      .fe60d062-35d8-46f7-a066-4f32acab380f {
        fill: #121314;
      }

      .fa6d2914-7dcf-4efd-bd3b-68d7bd2dfc86 {
        fill: #131515;
      }

      .a6d89537-54ee-457c-aa26-fefa5b740a7d {
        fill: #0c0e0f;
      }

      .b2129337-9e7e-48bf-b13a-a4af428aa489 {
        fill: #0e1010;
      }

      .b4c7a7a1-9485-4887-bb8e-67970946bcd3 {
        fill: #171819;
      }

      .b9a00742-4b43-40ed-b7ce-b68840f29dda {
        fill: #0f1112;
      }

      .a728bcc8-8a36-4473-9b40-1b32e657f815 {
        fill: #0f1011;
      }

      .a80f01a3-e8dc-4452-ae2c-fd0039b4b7ad {
        fill: #0f1111;
      }

      .e108c1fe-1040-41cd-8932-586ec5cdd4d4 {
        fill: #fdfdfc;
      }

      .b9516862-e851-48c7-916b-74d82c0f6fd1 {
        fill: #fefefe;
      }

      .a6f0f60e-2baf-4671-aedf-15327a3ae751 {
        fill: #f1f0ef;
      }

      .eb8a3776-d143-4d78-bd4d-060623ceb0a6 {
        fill: #fcfcfc;
      }

      .a8129bc2-6c8b-4dab-9ef6-602faf7d769c {
        fill: #fdfdfd;
      }

      .ad483126-cca5-4393-a8ef-d9a117fb4b2b {
        fill: #f8f7f7;
      }

      .add1fed2-c050-4b30-97a4-946cd7df131e {
        fill: #f4f3f3;
      }

      .a017b3a2-1c88-4231-825a-1ce21f4b5d5e {
        fill: #f9f9f8;
      }

      .bfe19fe5-27e2-405a-9e4b-6a3525ce2889 {
        fill: #84acca;
      }

      .a791ae9e-e20c-41a4-b0ab-cb99513df08f {
        fill: #388db4;
      }

      .a53b249a-71cf-4921-ba8f-1a7eb624e506 {
        fill: #679dc0;
      }

      .e2cf5c9a-daa4-4760-b98e-155ac01b350d {
        fill: #659cbf;
      }

      .ece8fdd4-946e-4ef7-8057-95f14bc58091 {
        fill: #feffff;
      }

      .af4d5e67-8c6a-43df-835e-c4536041fe5b {
        fill: #86adcb;
      }

      .f05c9275-ef42-4e0d-9e53-db025f6f9e4e {
        fill: #438fb6;
      }

      .bfd97c4c-2e92-4a5f-8f61-11bcbe22fc11 {
        fill: #71a2c3;
      }

      .abd83424-5b56-4267-a8f9-efea5ed645a4 {
        fill: #6ea1c2;
      }

      .e6c59026-cb28-46cd-b2d9-0001aa86c216 {
        fill: #73a4c4;
      }
    </style>
  </defs>
  <rect class="a544760d-d506-487c-a66e-15c8d67cf9f2" width="401.876" height="102.2"/>
  <g>
    <path class="fef2a27d-d3d5-4547-9050-6514ff66bf1c" d="M392.25532,61.22818c-1.8204,3.62964-2.76493,7.60317-4.43042,11.29206-1.14205,2.52958-2.27991,5.09911-5.07039,6.28531-.615.26146-1.52386,1.15557-1.9515.05769-.33686-.86478-1.34879-2.00974.465-2.90631,2.87347-1.42044,3.12254-2.46612,1.96874-5.36683-1.37717-3.46212-2.74564-6.92766-4.15672-10.48968.37972-.05286.62666-.07893.87038-.12248,2.12053-.37877,3.37861.25549,3.86363,2.58683a63.75322,63.75322,0,0,0,2.21212,6.81016c.79463-2.65906,1.66943-4.94162,2.12136-7.305.35475-1.85505,1.22246-2.39032,2.921-2.09893a9.80031,9.80031,0,0,0,1.18684.06346Z"/>
    <path class="bb6b95a2-d9c3-430c-a4fe-3473d84e0acb" d="M275.91951,59.93426q-.2328,4.50366-.46683,9.00728a24.126,24.126,0,0,0-.14827,2.77209c.0897,1.41153-.49038,1.77649-1.84289,1.702-1.0712-.059-1.53117-.24164-1.43584-1.43678q.63889-8.011,1.13128-16.03313c.0525-.85654.26736-1.17507,1.12912-1.09752a12.23456,12.23456,0,0,0,2.186.00032c.95288-.08606,1.32666.27068,1.64341,1.21731,1.3097,3.91433,2.53432,7.85274,3.64962,12.0474,1.32738-4.01116,2.566-7.80865,3.85444-11.58914.19581-.57455.09482-1.5222.89533-1.59382a21.371,21.371,0,0,1,3.94924.06767c.37842.03674.26323.68353.28442,1.06424.29044,5.21812.56045,10.43742.86712,15.65457.0604,1.02763.09512,1.81152-1.35846,1.687-1.088-.09323-1.97644.13869-1.997-1.55315a114.06837,114.06837,0,0,0-.83454-12.0525c-1.3642,4.00919-2.79986,7.99636-4.04786,12.04138-.3608,1.16951-.91309,1.30536-1.95652,1.37153-1.19143.07556-1.41881-.60024-1.67259-1.44765q-1.77249-5.91849-3.56572-11.83078Z"/>
    <path class="bb6b95a2-d9c3-430c-a4fe-3473d84e0acb" d="M170.18583,61.54086c3.26452-2.47227,4.11658-2.48616,7.58-.05267.64058.45007.78635-.018,1.08836-.297a4.68552,4.68552,0,0,1,5.44989-1.12079c2.00293.906,2.57873,2.70079,2.60633,4.72226.03346,2.45-.0619,4.90375.03761,7.35021.05726,1.40768-.78219,1.25305-1.65259,1.22958-.8216-.02215-1.76171.27155-1.69456-1.18393.09453-2.04873.04794-4.10548.01648-6.1581-.03346-2.18137-.98095-3.56471-2.36212-3.54577-1.47549.02022-2.37182,1.30725-2.39155,3.493-.01851,2.05294-.07835,4.10978.02131,6.158.06854,1.408-.80172,1.27642-1.66158,1.227-.82685-.0475-1.94178.41941-1.87946-1.20521.08624-2.24839.01807-4.50271.01521-6.75449-.00187-1.45928-.453-2.78425-2.07484-2.85315-1.63063-.06927-2.52489,1.12788-2.609,2.67656a64.91967,64.91967,0,0,0-.04033,6.74946c.07148,1.43075-.66895,1.40883-1.69176,1.419-1.05232.01049-1.70157-.03547-1.676-1.43784.06509-3.57087-.05009-7.1453-.11175-10.718-.01239-.71886-.02675-1.35118.98716-1.26559C169.14655,60.05822,170.54235,59.46862,170.18583,61.54086Z"/>
    <path class="bb6b95a2-d9c3-430c-a4fe-3473d84e0acb" d="M260.34911,71.89448c-2.41532,1.65542-5.0287,1.8039-6.95223.395-2.13266-1.56207-3.019-4.86894-2.12556-7.93022a6.051,6.051,0,0,1,5.44492-4.71286,1.70344,1.70344,0,0,1,.59313.01857c1.81855.57457,3.587,1.35376,5.54994.35224.54733-.27927,1.24-.16024,1.20807.91942-.11345,3.83709-.07988,7.67835-.17655,11.51614-.149,5.91554-4.30421,6.99935-8.66711,6.59709a19.5183,19.5183,0,0,1-2.0934-.5463c-1.6204-.3382-.69723-1.33681-.59412-2.14042.14659-1.14232.74849-.72946,1.41015-.49715a7.54587,7.54587,0,0,0,2.5069.51138C259.38048,76.38345,260.68953,74.91,260.34911,71.89448Z"/>
    <path class="f9043f32-7ddf-44fc-890b-bf3aa351845d" d="M193.58722,72.53956c0,1.56583-.10467,3.08042.02976,4.57349.13148,1.46061-.44885,1.74813-1.78192,1.72289-1.23614-.0234-1.86075-.09516-1.83012-1.6486.10051-5.09949-.01882-10.203.03176-15.30415.00641-.64513-.75061-1.92133.852-1.88839,1.02441.02106,2.53731-.62116,2.13521,1.84775,1.688-1.61785,3.28833-2.40125,5.2293-2.16238a5.32613,5.32613,0,0,1,3.28632,1.64771c2.27235,2.36941,2.45738,7.38534.35307,10.13892C200.05073,73.8769,197.10166,74.286,193.58722,72.53956Z"/>
    <path class="f9043f32-7ddf-44fc-890b-bf3aa351845d" d="M150.052,42.90835c-1.602.49316-1.91922-.48662-2.28508-1.67392-1.07788-3.49776-1.1265-3.37846-4.70311-3.52849-1.69521-.07111-2.54232.43832-2.75768,2.10094a10.35577,10.35577,0,0,1-.46843,1.71212,2.84654,2.84654,0,0,1-3.59872,1.428c-.50842-.27024-.29572-.63206-.17882-.99342,1.776-5.48992,3.57141-10.97371,5.305-16.477a1.12271,1.12271,0,0,1,1.21335-.93016c3.408-.25334,3.40751-.277,4.47,2.97924,1.46429,4.48749,2.88517,8.98978,4.41207,13.45585C151.99234,42.53693,152.06925,43.48263,150.052,42.90835Z"/>
    <path class="fef2a27d-d3d5-4547-9050-6514ff66bf1c" d="M323.394,61.2941c.28979-.06821.44078-.05785.51638-.12831a4.64657,4.64657,0,0,1,5.2743-1.13482c2.06123.83485,2.79143,2.58385,2.9002,4.57024.14117,2.57819.0259,5.16941.0766,7.75394.031,1.5765-1.12385.93936-1.82723.98985-.78015.056-1.79231.35292-1.7411-1.12495.07575-2.18518.04764-4.37549.00921-6.56266-.03549-2.02-1.00869-3.20475-2.51248-3.17378a2.90359,2.90359,0,0,0-2.68045,3.11843c-.05656,2.18639-.0958,4.37938.01338,6.56172.072,1.43929-.813,1.26554-1.652,1.19369-.79514-.0681-1.946.50745-1.93274-1.1456.04628-5.76756.01987-11.53571.01686-17.30364-.00087-1.66723,1.26847-.9168,2.02892-1.02671.77255-.11165,1.591-.21416,1.53433,1.09763C323.32792,57.06818,323.394,59.164,323.394,61.2941Z"/>
    <path class="fef2a27d-d3d5-4547-9050-6514ff66bf1c" d="M145.98227,73.619c-6.36338.00357-10.08277-3.84288-9.8262-9.70238.30491-6.96326,5.841-9.80291,11.09929-9.28442a17.24656,17.24656,0,0,1,1.96868.27259c.8882.193,1.55048.42228,1.09693,1.69467-.35778,1.00378-.36982,1.51358-1.77622,1.17518-5.05373-1.216-8.60685,1.35734-8.68765,6.05-.08748,5.0817,3.297,7.86307,8.28294,6.68544,1.38818-.32787,2.041-.153,2.15349,1.388.06211.85082-.16456,1.12474-.96822,1.35114A14.25612,14.25612,0,0,1,145.98227,73.619Z"/>
    <path class="fef2a27d-d3d5-4547-9050-6514ff66bf1c" d="M244.51544,29.34017c4.09071-.01141,6.63987,2.64042,6.64031,6.90772.00044,4.23775-2.72649,7.07441-6.80107,7.07474-4.08068.00034-6.72012-2.68348-6.74458-6.858C237.58427,32.06437,240.21307,29.35217,244.51544,29.34017Z"/>
    <path class="fef2a27d-d3d5-4547-9050-6514ff66bf1c" d="M182.02889,29.3414c4.04309.0204,6.66844,2.79325,6.617,6.98873-.05119,4.17738-2.86386,7.01279-6.93649,6.99254-4.009-.01992-6.73339-2.8225-6.74179-6.93535C174.95885,32.09462,177.73977,29.31975,182.02889,29.3414Z"/>
    <path class="fef2a27d-d3d5-4547-9050-6514ff66bf1c" d="M158.05835,73.61861c-4.12886-.01281-6.666-2.64232-6.652-6.89408.01427-4.318,2.80329-7.13571,7.01233-7.0844,3.98786.04861,6.57087,2.83683,6.55391,7.07461C164.95565,70.96037,162.2803,73.63171,158.05835,73.61861Z"/>
    <path class="fef2a27d-d3d5-4547-9050-6514ff66bf1c" d="M288.17847,29.34046c4.01265.05862,6.63292,2.87686,6.556,7.05129-.07876,4.27423-2.9301,7.026-7.18169,6.9309-3.93656-.08807-6.46835-2.93164-6.40781-7.19687C281.20456,31.93291,283.95579,29.27876,288.17847,29.34046Z"/>
    <path class="fef2a27d-d3d5-4547-9050-6514ff66bf1c" d="M344.86977,61.71341c2.00936-1.92446,3.969-2.62131,6.24151-1.6369,2.26951.98309,2.78259,3.04342,2.86862,5.22672.08588,2.1797-.08819,4.37249.05561,6.54607.10058,1.52032-.6683,1.56962-1.783,1.53941-1.016-.02753-1.95064.17866-1.83022-1.44972.15568-2.10541.05187-4.23117.03292-6.34792-.01445-1.61472-.59016-2.89626-2.37859-3.08492-1.524-.16077-2.75224,1.28658-2.78193,3.1776-.03321,2.1164-.10716,4.24.02539,6.34854.09441,1.50188-.77082,1.36153-1.72038,1.34558-.98369-.01653-1.94522.23035-1.89044-1.42158.11394-3.43545-.01589-6.87837.02-10.31754.00655-.62876-.56272-1.74114.897-1.66123C343.67661,60.035,345.07132,59.529,344.86977,61.71341Z"/>
    <path class="fef2a27d-d3d5-4547-9050-6514ff66bf1c" d="M256.49445,31.35066c1.15511-.96907,2.026-1.77038,3.26493-1.96233,3.34331-.518,5.68,1.42144,5.85081,5.04938.11521,2.44777-.03843,4.90733.04286,7.35781.06149,1.85489-1.26976,1.02109-2.06835,1.17263-.98357.18666-1.58756-.01458-1.52036-1.29219.11129-2.1158.048-4.24191.02493-6.36332-.0224-2.0626-.91144-3.1599-2.47777-3.12969a2.84428,2.84428,0,0,0-2.67824,3.084c-.04735,2.18693-.10172,4.3806.01834,6.56194.08387,1.52375-.90106,1.18424-1.67446,1.12845-.76939-.0555-1.9513.5788-1.91619-1.11585.07138-3.4462-.01249-6.89551.04779-10.34213.01185-.67869-.74024-1.91195.84448-1.89427C255.32053,29.617,256.8811,28.97444,256.49445,31.35066Z"/>
    <path class="a73dccb2-807b-48a9-8235-dc947ddacefc" d="M214.75388,71.47724a6.56292,6.56292,0,0,1-3.21175,2.0801c-3.37567.637-5.755-1.13937-5.93395-4.60279-.13648-2.64221.01427-5.298-.05315-7.94547-.04033-1.58231,1.08675-.98973,1.78-.99662.71089-.00709,1.83216-.535,1.79108,1.01942-.05945,2.25021-.02767,4.50328-.00948,6.75493.01293,1.59766.44231,2.93206,2.36548,3.00836,1.572.06238,2.57382-1.07872,2.62535-3.04783.05714-2.18409.085-4.37379-.00814-6.55535-.06931-1.62412,1.03294-1.16411,1.86462-1.20672.83726-.04289,1.66284-.24663,1.64142,1.18812-.05435,3.63635.04759,7.2757.12881,10.91291.02009.89858-.20141,1.31721-1.20694,1.31352C215.389,73.39564,214.33288,73.49657,214.75388,71.47724Z"/>
    <path class="fef2a27d-d3d5-4547-9050-6514ff66bf1c" d="M219.85853,38.41939a20.13376,20.13376,0,0,1-.02107,2.377c-.0859.71918.5402,1.88115-.3547,2.06266-.84686.17178-2.20964.88321-2.80576-.70377-.20889-.5562-.483-.02542-.70238.0786a15.74229,15.74229,0,0,1-1.74647.86225,4.25437,4.25437,0,0,1-3.30189-7.84185,11.52593,11.52593,0,0,1,4.17725-1.04609c.40479-.05174.99792.274,1.15416-.37026a1.39772,1.39772,0,0,0-.64956-1.36639c-1.3633-1.13864-2.86388-.74148-4.31393-.24718-.70511.24037-1.26838.687-1.617-.44166-.30742-.99525-.18544-1.57708.90738-1.91857a11.21134,11.21134,0,0,1,5.28256-.4114,4.35127,4.35127,0,0,1,3.65491,3.44634A23.15706,23.15706,0,0,1,219.85853,38.41939Z"/>
    <path class="e83adddf-63cd-48f4-8508-66fb82835759" d="M305.08436,68.50231c0,1.05972.05539,2.12353-.02238,3.17751-.04168.56487.55351,1.4873-.47525,1.63153-.80257.11251-2.05644.50543-2.40526-.28115-.57331-1.29261-.943-.413-1.41961-.12237-3.10778,1.89513-6.83664.3317-7.1335-2.99562-.217-2.4331,1.78906-4.54772,4.84125-5.0779.58506-.10163,1.19313-.08262,1.77149-.20762.43959-.095,1.16894.31068,1.2391-.55523a1.554,1.554,0,0,0-.86885-1.45912c-1.3959-.85065-2.801-.40006-4.19049.05021-.57833.18741-1.137.72219-1.41409-.42852-.19985-.82979-.58171-1.4668.58487-1.8585a10.32166,10.32166,0,0,1,5.44414-.58158c2.50609.51673,3.82106,2.13255,4.00745,4.93479.08333,1.25261.01411,2.51537.01411,3.77352Z"/>
    <path class="a73dccb2-807b-48a9-8235-dc947ddacefc" d="M239.6015,61.64372a6.76244,6.76244,0,0,1,3.862-1.98721,4.5774,4.5774,0,0,1,5.11631,4.55284c.11117,2.64391-.03457,5.29834.06514,7.94315.05347,1.41794-.80136,1.2347-1.66122,1.22061-.82986-.01362-1.70668.251-1.696-1.19094a40.64841,40.64841,0,0,0-.16042-7.33053c-.24037-1.38023-.95131-2.43653-2.47038-2.318a2.56762,2.56762,0,0,0-2.4869,2.39488,16.71544,16.71544,0,0,0-.15016,1.97318c-.02082,1.72132-.0904,3.44822.01679,5.16307.09586,1.5336-.88068,1.28188-1.79752,1.31738-1.00281.03882-1.74464.05965-1.71039-1.38629.08771-3.704.0458-7.41329-.05374-11.11754-.02181-.81284.27594-.9204.8707-.89325C238.36061,60.03136,239.72932,59.46743,239.6015,61.64372Z"/>
    <path class="e83adddf-63cd-48f4-8508-66fb82835759" d="M363.99763,67.65074c-1.05794.00026-2.11813.04428-3.1733-.00981-1.67689-.086-1.40284.8008-.80007,1.67474,1.52915,2.217,3.8215,1.80895,5.94026,1.40514,1.31983-.25156,1.577.19029,1.66516,1.29321.051.63766-.08975,1.007-.73113,1.1567a11.66832,11.66832,0,0,1-6.62415.01847c-3.55305-1.23138-5.07494-5.09438-3.63259-9.182a6.099,6.099,0,0,1,11.79523,3.1011c-.20816.68177-.6512.52622-1.06736.53452C366.24605,67.66522,365.12169,67.65047,363.99763,67.65074Z"/>
    <path class="b5faf211-91b2-49fa-859c-e81deb3acda3" d="M274.3774,37.40732c0-1.124.00948-2.248-.003-3.37182-.0103-.92858.34671-2.084-1.3467-1.89322-.71375.08038-.55727-.61508-.52274-1.026.04419-.52577-.34358-1.43412.52785-1.4435,1.38933-.01495,1.31271-.816,1.39451-1.79238.27659-3.30212,2.79821-5.08677,6.085-4.60019,1.1976.17729,1.08237.77019,1.06711,1.59815-.01584.861-.11969,1.37359-1.21215,1.19744a1.9512,1.9512,0,0,0-2.3958,1.514c-.40987,1.3109-.48283,2.23747,1.3306,1.99628,1.074-.14284,1.47643.23427,1.50578,1.40453.03129,1.24917-.62119,1.31065-1.455,1.17628-1.45182-.234-1.5758.53442-1.54628,1.694.06565,2.5768-.08233,5.162.05673,7.73293.09125,1.68749-.94365,1.32923-1.89768,1.40123-1.0747.08111-1.75364-.04271-1.61783-1.42542C274.48289,40.19448,274.37743,38.79573,274.3774,37.40732Z"/>
    <path class="e3351634-b7bc-4a03-9ca8-5f3ebaf5813d" d="M226.54736,26.14278a8.52858,8.52858,0,0,1,.06511,1.51749c-.231,1.52592.315,2.20867,1.90421,1.93007.9998-.17528,1.38922.2043,1.37593,1.287-.01242,1.01073-.25293,1.51129-1.31485,1.30144-1.73688-.34322-2.14486.46069-1.97917,2.04592a34.65228,34.65228,0,0,1,.0561,4.17249c-.02157,1.28316.55389,2.11931,1.83636,2.03885,1.04812-.06575,1.19466.298,1.19955,1.19638.005.93357-.20626,1.46526-1.23128,1.64572-2.82435.49724-4.76962-.68153-5.13237-3.51292-.26758-2.08875-.13284-4.2278-.20609-6.34345-.01793-.51791.29351-1.3279-.73892-1.22922-.8911.08517-1.17686-.29586-1.107-1.14434.05916-.71868-.13948-1.54384,1.03313-1.47146.41571.02565.87614-.07216.7992-.60967C222.6992,26.1166,225.12867,26.92541,226.54736,26.14278Z"/>
    <path class="bcc6bcef-6f4d-4ed2-98ed-db12f0434776" d="M172.36567,32.45464a8.25217,8.25217,0,0,0-3.02964-.67153,1.63065,1.63065,0,0,0-1.53943,1.05194c-.25182.77549.30764,1.24422.92642,1.53965.82661.39466,1.71479.66277,2.53311,1.072a3.88652,3.88652,0,0,1,2.38,3.98272,3.96674,3.96674,0,0,1-3.00831,3.52258,9.23331,9.23331,0,0,1-5.639-.14706c-1.25-.37242-.69025-1.21589-.522-2.06409.23444-1.18209.8363-.69578,1.39437-.457a5.83211,5.83211,0,0,0,2.50587.42676c.7983-.02423,1.62594-.12062,1.80842-1.148.15743-.8863-.42851-1.34308-1.08748-1.6853-.51961-.26984-1.10237-.41519-1.64649-.64126q-3.52033-1.46261-2.9244-4.50212c.40844-2.09427,1.97848-3.28948,4.45574-3.38374.39612-.01507.79385-.0145,1.19.00042C173.016,29.45808,173.27832,29.82754,172.36567,32.45464Z"/>
    <path class="a73dccb2-807b-48a9-8235-dc947ddacefc" d="M225.75778,73.618c-2.91893.01592-4.07572-.94085-4.31053-3.66924-.16938-1.96807-.11734-3.95533-.1593-5.93413-.01382-.65269.12823-1.41142-.90337-1.37718-1.22489.04065-.86418-.86067-.94052-1.52233-.09319-.808.13042-1.26261,1.05862-1.15177.61587.07354.84059-.35407.77-.87492-.31527-2.32629,1.59735-1.98482,2.84286-2.3084.97014-.252.56692.68439.53264,1.01883-.16146,1.57411.13245,2.5889,2.05564,2.18785.90906-.18958,1.30441.17925,1.23923,1.16888-.05545.84232.02089,1.69714-1.19637,1.4624-2.05676-.39664-2.22374.746-2.08694,2.33313.10748,1.24692.00027,2.51082.05661,3.76412.05165,1.14831.40521,2.167,1.83381,2.04263,1.08558-.09455,1.32272.3412,1.29765,1.33685-.02391.949-.21117,1.548-1.30314,1.48166A5.2466,5.2466,0,0,0,225.75778,73.618Z"/>
    <path class="a73dccb2-807b-48a9-8235-dc947ddacefc" d="M158.70329,29.264c.71163.11638,1.42019.25873,2.13559.34331,1.20576.14257,1.21779.79.9558,1.787-.28688,1.09172-.865,1.01808-1.66477.70516a4.50133,4.50133,0,0,0-1.13652-.3022c-.98632-.10674-1.96285.0531-2.2025,1.16533-.20569.95465.66042,1.31041,1.38134,1.63686.77572.35128,1.592.62417,2.33725,1.02926a3.723,3.723,0,0,1,2.07832,3.92036,3.76783,3.76783,0,0,1-2.70788,3.31052,8.79474,8.79474,0,0,1-5.44662.08159c-1.21885-.32878-1.45684-.86128-1.04924-2.05656.29765-.87282.59986-1.02514,1.36824-.66414a5.45676,5.45676,0,0,0,2.891.4761,1.54189,1.54189,0,0,0,1.58048-1.23735,1.48948,1.48948,0,0,0-1.01258-1.53562c-.585-.28867-1.22359-.46666-1.81925-.73613-2.33306-1.05549-3.32376-2.60993-2.93347-4.56353a4.55228,4.55228,0,0,1,4.44016-3.261c.26334-.0153.52833-.00208.79256-.00208Z"/>
    <path class="adf9366f-869d-4926-a46b-a996644a598f" d="M198.04575,32.10341a3.60026,3.60026,0,0,0-3.89191,1.90125,4.493,4.493,0,0,0,.30786,5.04389,3.85085,3.85085,0,0,0,4.458,1.32469c1.11514-.33511,1.3749-.14332,1.66627.96745.32985,1.25764-.16533,1.42626-1.16913,1.66923-3.713.89877-7.01953-.18794-8.51224-2.90545a7.47885,7.47885,0,0,1,1.4122-9.06118c2.06878-1.82359,4.55658-1.91793,7.08942-1.54036.49486.07378,1.73369-.06589,1.22844,1.18807-.29446.73079.09817,2.331-1.65816,1.5002A3.9047,3.9047,0,0,0,198.04575,32.10341Z"/>
    <path class="a73dccb2-807b-48a9-8235-dc947ddacefc" d="M314.70271,73.61565c-3.71431.00972-5.7993-1.21793-6.89878-3.83045-1.1219-2.66578-.54542-6.23574,1.42274-8.0709,2.27916-2.12517,4.9884-2.45745,7.9298-1.70623,1.1995.30634.62707,1.1231.55,1.7355-.1041.82743-.44326,1.071-1.46365.84805-3.82226-.83536-6.40131,2.08467-5.17484,5.69674.66716,1.96481,2.29667,2.84986,4.97214,2.45892,1.062-.1552,1.62469-.21093,1.81584,1.09382.20431,1.3949-.6943,1.49876-1.56839,1.66982A9.47733,9.47733,0,0,1,314.70271,73.61565Z"/>
    <path class="fe60d062-35d8-46f7-a066-4f32acab380f" d="M299.82092,31.68117a18.723,18.723,0,0,1,1.8662-1.78172c.77706-.54328,1.84289-.95986,2.57334-.34847.62646.52431.19253,1.62275.21619,2.466.01558.5549-.43523.50307-.83119.57563-2.45835.45055-3.14067,1.15822-3.25891,3.5998a37.87241,37.87241,0,0,0,.0183,5.34258c.14955,1.59817-.74806,1.43562-1.7826,1.471-1.154.03952-1.80449-.08883-1.74989-1.55787.12244-3.296.01039-6.60015.05833-9.9.01173-.80649-.67338-2.03375,1.16361-2.01243C299.50028,29.552,300.28765,29.80347,299.82092,31.68117Z"/>
    <path class="e3351634-b7bc-4a03-9ca8-5f3ebaf5813d" d="M373.91577,61.78161c.93525-1.01666,1.79941-2.02953,3.22055-2.12624.75887-.05164,1.4689.10571,1.14554,1.00431-.265.73672,1.00041,2.018-.81421,2.2369-2.37815.28687-3.01633.95572-3.19309,3.4247a48.57616,48.57616,0,0,0-.09121,5.73116c.07094,1.51106-.84982,1.30052-1.78152,1.33359-1.00964.03583-1.72206.04552-1.67969-1.39085.09922-3.36323-.04577-6.73325.02221-10.09821.013-.64259-.76052-1.80938.82679-1.936C373.17056,59.83344,373.4583,59.97851,373.91577,61.78161Z"/>
    <path class="fa6d2914-7dcf-4efd-bd3b-68d7bd2dfc86" d="M202.78318,36.2293c0-1.78774.0869-3.58111-.02855-5.36138-.08644-1.33333.62731-1.37,1.57313-1.28889.8457.07248,1.91038-.3709,1.87863,1.22887-.07225,3.64026-.08564,7.28453.00649,10.92391.04035,1.59351-.96839,1.23676-1.83228,1.24614-.81249.00882-1.74.29576-1.63015-1.1892C202.88692,39.94488,202.7832,38.08326,202.78318,36.2293Z"/>
    <path class="a6d89537-54ee-457c-aa26-fefa5b740a7d" d="M233.43705,66.76753c0,1.65055-.1076,3.31026.03185,4.949.12619,1.4831-.4823,1.71252-1.79306,1.70264-1.30694-.00986-1.86474-.24888-1.81542-1.72631.11445-3.42934.141-6.86965-.00831-10.2963-.07271-1.668.86418-1.4002,1.84571-1.42789,1.03653-.02925,1.93184-.14789,1.77791,1.45482C233.30606,63.18976,233.437,64.98493,233.43705,66.76753Z"/>
    <path class="b2129337-9e7e-48bf-b13a-a4af428aa489" d="M231.84216,36.35849c0-1.7828.10094-3.57319-.03249-5.34594-.10376-1.37873.548-1.54977,1.62743-1.43241.89142.0969,2.02333-.41,1.9762,1.32035-.09883,3.62893-.08408,7.26356-.00753,10.89357.03887,1.84217-1.25562,1.03672-2.05591,1.17437-.9385.16142-1.62808.05534-1.53778-1.26363C231.93353,39.93032,231.84218,38.14128,231.84216,36.35849Z"/>
    <path class="fef2a27d-d3d5-4547-9050-6514ff66bf1c" d="M338.57539,66.61433c-.00008,1.85491-.07454,3.71378.02381,5.56347.07694,1.44684-.85284,1.18248-1.68489,1.1951-.85954.013-1.69574.19731-1.66352-1.22034.08423-3.70791.06819-7.41964.00969-11.12854-.02476-1.56883,1.06884-.96791,1.78077-1.02581.73207-.05952,1.62544-.30977,1.55724,1.05252C338.5059,62.901,338.57546,64.75941,338.57539,66.61433Z"/>
    <path class="b4c7a7a1-9485-4887-bb8e-67970946bcd3" d="M336.97354,58.098c-1.2578.03069-1.9545-.5883-1.97027-1.73911a1.93927,1.93927,0,0,1,3.878.06A1.64116,1.64116,0,0,1,336.97354,58.098Z"/>
    <path class="b9a00742-4b43-40ed-b7ce-b68840f29dda" d="M206.40036,26.0132a1.70005,1.70005,0,0,1-1.797,1.77531,1.73755,1.73755,0,0,1-1.9975-1.91487,1.65147,1.65147,0,0,1,1.88558-1.7959A1.75127,1.75127,0,0,1,206.40036,26.0132Z"/>
    <path class="a728bcc8-8a36-4473-9b40-1b32e657f815" d="M231.64462,58.11094c-1.15638-.04651-1.85121-.58666-1.827-1.81a1.68383,1.68383,0,0,1,1.83519-1.84275,1.72846,1.72846,0,0,1,1.94936,1.94538C233.60726,57.58652,232.83148,58.13982,231.64462,58.11094Z"/>
    <path class="a80f01a3-e8dc-4452-ae2c-fd0039b4b7ad" d="M235.47411,25.74563c-.0061,1.32657-.59641,2.008-1.78471,2.04717a1.74585,1.74585,0,0,1-2.00079-1.91359,1.67976,1.67976,0,0,1,1.90067-1.80017C234.66422,24.08552,235.5062,24.59262,235.47411,25.74563Z"/>
    <path class="e108c1fe-1040-41cd-8932-586ec5cdd4d4" d="M260.50239,66.93778a7.98837,7.98837,0,0,1-.06647,1.1762,2.81931,2.81931,0,0,1-2.40048,2.54965,2.88254,2.88254,0,0,1-3.074-1.70141,4.42954,4.42954,0,0,1-.47627-2.30179c-.00938-2.532,1.24377-4.23634,3.1534-4.268C259.55929,62.36055,260.51,63.73259,260.50239,66.93778Z"/>
    <path class="b9516862-e851-48c7-916b-74d82c0f6fd1" d="M193.63046,66.71448a10.57786,10.57786,0,0,1,.01693-1.78457,3.02152,3.02152,0,0,1,2.33149-2.43179,2.74679,2.74679,0,0,1,2.97133,1.13275,5.92379,5.92379,0,0,1,.07893,6.0094,2.88848,2.88848,0,0,1-3.48946,1.13482,2.68009,2.68009,0,0,1-1.95246-2.86818c.01666-.39681.00255-.79492.00255-1.19244Z"/>
    <path class="a6f0f60e-2baf-4671-aedf-15327a3ae751" d="M143.72683,27.76225c.7366,2.26645,1.40017,4.3125,2.06689,6.35751.25489.78177-.03881,1.001-.83864,1.07691-3.44848.32739-3.55657.21042-2.50055-3.12659C142.87952,30.72715,143.25431,29.36834,143.72683,27.76225Z"/>
    <path class="b9516862-e851-48c7-916b-74d82c0f6fd1" d="M247.70328,36.3686a17.46269,17.46269,0,0,1-.59485,2.35068,2.84529,2.84529,0,0,1-5.39963.11019,6.23876,6.23876,0,0,1-.19429-4.62528,2.98888,2.98888,0,0,1,2.84219-2.35509c1.5644-.053,2.39912.95732,2.89859,2.2562A13.62153,13.62153,0,0,1,247.70328,36.3686Z"/>
    <path class="eb8a3776-d143-4d78-bd4d-060623ceb0a6" d="M185.0657,36.30222a7.32959,7.32959,0,0,1-.72872,2.89767,2.81473,2.81473,0,0,1-5.07693-.13086,5.72361,5.72361,0,0,1-.34063-4.77651c.48278-1.4273,1.35139-2.45537,2.97067-2.4369,1.64048.01871,2.426,1.16333,2.8788,2.55067A11.249,11.249,0,0,1,185.0657,36.30222Z"/>
    <path class="b9516862-e851-48c7-916b-74d82c0f6fd1" d="M155.00878,66.6642a5.0161,5.0161,0,0,1,.64126-2.85948,2.805,2.805,0,0,1,4.98662-.105,5.72114,5.72114,0,0,1,.0588,5.841,2.71677,2.71677,0,0,1-2.53326,1.61812,2.96381,2.96381,0,0,1-2.61085-1.83624A4.6588,4.6588,0,0,1,155.00878,66.6642Z"/>
    <path class="a8129bc2-6c8b-4dab-9ef6-602faf7d769c" d="M291.15313,36.21731a5.6642,5.6642,0,0,1-.74995,2.94329,2.769,2.769,0,0,1-4.95492.11872,5.95115,5.95115,0,0,1-.22274-5.51709,2.81806,2.81806,0,0,1,2.74294-1.9125,2.89662,2.89662,0,0,1,2.74819,2.17883A4.60193,4.60193,0,0,1,291.15313,36.21731Z"/>
    <path class="ad483126-cca5-4393-a8ef-d9a117fb4b2b" d="M216.35439,38.18678a2.65078,2.65078,0,0,1-2.68364,2.65849,1.72241,1.72241,0,0,1-1.77586-1.95194c.05089-1.38214,1.44162-2.24782,3.36743-2.37086C216.66,36.43317,216.34287,37.2846,216.35439,38.18678Z"/>
    <path class="add1fed2-c050-4b30-97a4-946cd7df131e" d="M298.68763,71.181a1.65344,1.65344,0,0,1-1.56225-1.79864c-.04676-1.40682,1.69691-2.566,3.6452-2.54805.8732.00805.92142.48153.93131,1.13746A2.87458,2.87458,0,0,1,298.68763,71.181Z"/>
    <path class="a017b3a2-1c88-4231-825a-1ce21f4b5d5e" d="M362.26654,65.20924c-.06589,0-.14444.02377-.19575-.00357-.75833-.40435-2.13457.8487-2.37074-.689-.17572-1.14414,1.58442-2.44216,2.89369-2.44813a2.25557,2.25557,0,0,1,1.45391.52522,2.19337,2.19337,0,0,1,1.07744,2.18072c-.26367.92322-1.2372.25882-1.87377.42111A4.10047,4.10047,0,0,1,362.26654,65.20924Z"/>
  </g>
  <g>
    <path class="bfe19fe5-27e2-405a-9e4b-6a3525ce2889" d="M19.36709,39.19942c.32849-.36825.63956-.75389.988-1.10222q17.64225-17.63881,35.288-35.27414c.347-.34694.648-.73975.97051-1.11116h.54357c.18319.54649.66551.8453,1.04237,1.22235q15.4095,15.41709,30.829,30.8242c.34752.34756.64724.7429.96923,1.116-.70892.56978-1.5492.30589-2.336.35383-.6262.03817-1.2566.00242-1.885.0092-1.541.01661-1.5398.01843-1.45549,1.5146a1.01241,1.01241,0,0,1-.08473.39185c-.87573.48561-.9588-.40193-1.191-.784a32.94571,32.94571,0,0,0-5.21341-6.57514,29.08657,29.08657,0,0,0-15.45353-7.95016A30.19355,30.19355,0,0,0,30.61387,36.47752c-.386.6607-.56251,1.57833-1.53988,1.74761-.65384-.24244-.41774-1.37795-1.344-1.34341-1.61107.06008-3.2629-.34091-4.81221.42411a15.66457,15.66457,0,0,0-2.23662,1.53039C20.29853,39.11575,19.93771,39.563,19.36709,39.19942Z"/>
    <path class="a791ae9e-e20c-41a4-b0ab-cb99513df08f" d="M56.61356,101.15038q-4.25237-4.28313-8.506-8.565Q36.31588,80.775,24.516,68.97293c-.38224-.38269-.74144-.78838-1.11136-1.18335.01318-.65449.54211-.66351.96027-.68418a44.15689,44.15689,0,0,1,5.0018.00947,3.56212,3.56212,0,0,1,1.83127.80568c1.59492,1.59916,2.7711,3.55462,4.426,5.11809a30.09,30.09,0,0,0,18.74728,8.51c9.02166.7307,16.71757-2.18163,23.34387-8.1528a27.16623,27.16623,0,0,0,4.27143-5.07415,4.47623,4.47623,0,0,1,1.32339-1.5246c1.91943-.89069,3.94379-.5866,5.92645-.43325,1.04626.08092,1.15487.67283.52356,1.87306-.44013.50032-.85427,1.02655-1.32421,1.49711Q73.29342,84.89619,58.14243,100.04969c-.34752.34783-.65771.733-.9853,1.10069Z"/>
    <path class="a53b249a-71cf-4921-ba8f-1a7eb624e506" d="M89.75987,68.23686c.25955-1.586.25911-1.612-1.41731-1.58387-1.72876.029-3.494-.2608-5.1523.50424-.29239-.63747.08853-1.15163.36128-1.64526A29.73364,29.73364,0,0,0,86.909,48.74648a27.60908,27.60908,0,0,0-2.55515-9.78111c-.23548-.50831-.67077-1.007-.30466-1.6385a3.14514,3.14514,0,0,0-.03279-.79912c-.50763-1.6689-.51619-1.66954,1.28674-1.66871,1.56493.00072,3.12987.00987,4.69466.01534Q95.199,40.014,100.39913,45.15488c1.89293,1.87555,3.76137,3.77591,5.66532,5.64011.46658.45684.60652.755.06025,1.29744q-8.02785,7.97179-16.01334,15.98623A1.12333,1.12333,0,0,1,89.75987,68.23686Z"/>
    <path class="e2cf5c9a-daa4-4760-b98e-155ac01b350d" d="M31.24344,68.29167c-2.53533-1.37723-5.18638-.94944-7.83877-.50215q-4.95462-4.90773-9.90769-9.81695c-1.92261-1.91027-3.82407-3.84184-5.752-5.74667-.46512-.45955-.76265-.78282-.126-1.4055,3.93767-3.85159,7.8365-7.74286,11.74819-11.621a6.20016,6.20016,0,0,0,2.26853-1.59682c2.0667-1.65249,4.46206-1.05441,6.75217-1.06056.94088-.00252.12108,1.28727.8627,1.58319.26076.58278-.09943,1.05085-.29945,1.53994a31.08281,31.08281,0,0,0-2.34579,11.51334,29.68771,29.68771,0,0,0,4.14961,15.555C31.03024,67.20106,31.57729,67.61909,31.24344,68.29167Z"/>
    <path class="ece8fdd4-946e-4ef7-8057-95f14bc58091" d="M31.24344,68.29167a32.44572,32.44572,0,0,1-4.5601-11.88282,31.437,31.437,0,0,1,2.56671-18.28358A42.11236,42.11236,0,0,1,34.251,30.92859a29.40628,29.40628,0,0,1,15.2044-9.0762A30.12655,30.12655,0,0,1,76.482,28.05069a32.82475,32.82475,0,0,1,7.56732,9.27611,34.3372,34.3372,0,0,1,3.03757,9.74594,30.60762,30.60762,0,0,1-3.449,19.10995c-.17159.31257-.29929.6492-.44752.97459A31.14424,31.14424,0,0,1,66.882,80.36983,30.59992,30.59992,0,0,1,31.57952,68.71632C31.47849,68.56733,31.35594,68.4329,31.24344,68.29167Z"/>
    <path class="af4d5e67-8c6a-43df-835e-c4536041fe5b" d="M83.47943,58.22484a25.7358,25.7358,0,0,1-12.481,16.7854c-10.347,5.89428-20.66825,5.42412-30.42666-1.389-6.507-4.543-10.00478-11.099-11.12-18.9304a2.84771,2.84771,0,0,1,.02451-.5405c.33811-.03855.42417.26848.61424.4391.88122.7911,1.5801.60942,2.00975-.50191.13236-.34236.043-.99581.76862-.61254a3.70435,3.70435,0,0,1,.22361,1.46387,3.17324,3.17324,0,0,0,3.2348,3.15962,5.11439,5.11439,0,0,0,3.2561-.70974c.57661-.38575,1.12927-.5844,1.67114.06355a1.36328,1.36328,0,0,0,.98786.37439c2.00729.21785,2.29442-.03363,2.2989-2.04953.00413-1.85474-.00691-3.70953.00555-5.5642a2.90778,2.90778,0,0,1,.27749-1.71173c.90734-.10893.68137.63692.71246,1.05722.0984,1.33037-.00633,2.66876.06045,4.00236.03822.76321.32175,1.22019,1.181.79753.63435-.0105.78844.5307,1.02992.93606a5.60682,5.60682,0,0,0,3.76408,2.64176,12.025,12.025,0,0,0,4.43859.081c1.59-.23666,1.8776-.67573,1.87764-2.24854a9.81859,9.81859,0,0,0-.25767-1.73174c.55136-.61177.90877-.36211,1.14323.27739a3.67087,3.67087,0,0,1,.116,1.188c.04358,1.704.04376,1.704,1.70512,2.03557a5.483,5.483,0,0,0,.78556.21255c2.36747.35145,2.69672.07054,2.70424-2.29352.00561-1.76245-.048-3.52611.02565-5.287a2.15414,2.15414,0,0,1,1.98745-2.334c1.56453-.25225,2.46194.39547,2.56523,1.99274.13123,2.0294.02819,4.066.04883,6.09935a1.94251,1.94251,0,0,0,3.01108,1.76618c.57065-.28484.4958-.81937.50313-1.29677.03262-2.12376.00028-4.248.02034-6.372a1.92475,1.92475,0,0,1,1.466-2.14559c1.6199-.41983,2.71677.28814,2.82939,1.9596.13976,2.07418.0235,4.15633.0545,6.23471.02358,1.58037.15183,1.705,1.69223,1.7367.633.013,1.26559-.01492,1.89608-.03058A5.54545,5.54545,0,0,0,83.47943,58.22484Z"/>
    <path class="f05c9275-ef42-4e0d-9e53-db025f6f9e4e" d="M31.6323,40.56489a24.76117,24.76117,0,0,1,6.05826-8.83815,26.09756,26.09756,0,0,1,18.80427-7.70049c11.73459.13837,20.26667,5.53512,25.36469,16.18662.09584.20024.17174.41.25694.61535a1.79952,1.79952,0,0,1-1.554.93641,9.29749,9.29749,0,0,1-1.08488.04751q-22.68026.00585-45.36053.00029c-.3621-.00006-.72393-.00669-1.08508-.04252C32.28146,41.69543,31.73159,41.393,31.6323,40.56489Z"/>
    <path class="e2cf5c9a-daa4-4760-b98e-155ac01b350d" d="M31.6323,40.56489a1.75285,1.75285,0,0,0,1.69166.8301q23.44821-.03267,46.89644.01041a7.64367,7.64367,0,0,0,1.89607-.57718,22.18143,22.18143,0,0,1,1.947,7.34355c.19891,1.486-.275,2.13206-1.6931,2.26087a3.323,3.323,0,0,1-1.72758-.179c-.63363-.52693-.50394-1.31833-.65129-2-.66039-3.05531-3.11273-4.14371-5.81312-2.547a2.79737,2.79737,0,0,0-.56061.37744c-.90821.89724-1.642.89551-2.58816-.10821-1.20282-1.276-3.10165-1.27072-4.8746-.22991-.78255.45941-1.397,1.05434-2.24083-.12381-.5365-.74905-1.71006-.43365-2.56156-.24159-.83423.18819-.495,1.03131-.56823,1.61784-.10261.82211.2498,1.73029-.47,2.43572-1.73928.35777-2.11874.05963-2.17441-1.68076a2.97547,2.97547,0,0,0-.20966-1.58787c-2.2939-1.59243-4.7637-1.4433-7.21384-.57886-2.53629.89483-3.67,2.86129-3.8084,5.5047-.05808,1.10949.31029,2.22644-.07633,3.3243-.06224.51112-.28443.90951-.86132.74062a1.07883,1.07883,0,0,1-.763-1.13973c.0017-1.38955.00959-2.77932-.0128-4.16855-.00769-.47724.15314-.99434-.22566-1.41729-1.58511-3.45782-4.60742-3.62734-7.80083-3.40956-.63441.04326-1.2562.17475-1.8817.2725a1.59182,1.59182,0,0,0-1.2897,1.99122c.19471.71721.72012.59169,1.19655.41845A8.3566,8.3566,0,0,1,38.674,47.287a2.7812,2.7812,0,0,1,1.92676.88334,1.13365,1.13365,0,0,1,.39014,1.09925c-.134.48122-.56051.54744-.97.59527-.49486.05781-.987.14928-1.48071.19409-2.44952.22231-4.59628.96848-5.89475,3.26032-.07461.15643-.2231.31849-.21168.46836.0677.88819-.10215,1.58605-1.16292,1.6849a1.58808,1.58808,0,0,1-1.79468-1.32226C29.17329,49.45982,29.543,44.876,31.6323,40.56489Z"/>
    <path class="bfd97c4c-2e92-4a5f-8f61-11bcbe22fc11" d="M80.55528,50.07007c.49794.00087.99594.00687,1.49382.00163,1.47666-.01551,1.8876-.40506,2.01438-1.89994.53986,1.47666.26205,3.01.24591,4.511a18.8841,18.8841,0,0,1-.82986,5.54211c-1.036.56964-2.06472,1.06364-2.919-.27722a.94318.94318,0,0,1-.37685-.69521,49.42842,49.42842,0,0,1-.00136-6.48436A.95617.95617,0,0,1,80.55528,50.07007Z"/>
    <path class="ece8fdd4-946e-4ef7-8057-95f14bc58091" d="M80.55528,50.07007q.00252,3.93876.00513,7.87753c-1.24824.58468-2.56442.21241-3.84736.24191-.69541.016-.49836-.6358-.50069-1.0438-.01339-2.35226.0173-4.70485-.0049-7.057-.01588-1.68349-.72091-2.26177-2.30159-1.91208a1.40416,1.40416,0,0,0-1.315,1.5646c.06973,2.39571-.01459,4.79595.05716,7.19154.02964.98967-.223,1.33027-1.26837,1.32356-3.06119-.01965-3.059.02778-3.05434-3.04159.00268-1.76421.02506-3.52913-.01611-5.29245-.03237-1.38638-.51023-1.81918-1.7988-1.7797-1.35437.04151-1.96435.589-1.97181,1.83941-.014,2.35227-.04269,4.70587.02194,7.05652.02682.97557-.32024,1.28962-1.24944,1.20383a20.00181,20.00181,0,0,0-2.03528-.01108c-.425.00434-.83308.00068-.9-.5607a1.52472,1.52472,0,0,1-.35717-.99011q-.08171-3.21686.00031-6.434a1.58876,1.58876,0,0,1,.35559-.99239c.0154-1.08483.02427-2.16981.0504-3.25439.00738-.30606-.13271-.78495.15662-.88195a10.81764,10.81764,0,0,1,3.4785-.15062c.7831-.00269.29581.82552.71591,1.19647,1.16867-.63917,2.21707-1.61466,3.74149-1.543a3.66935,3.66935,0,0,1,3.15428,1.51671c.48407.7391.73982.47152,1.21191.05669a5.54322,5.54322,0,0,1,3.104-1.53949c2.722-.26325,4.2176,1.228,4.51986,4.4682C80.53682,49.43723,80.54,49.75422,80.55528,50.07007Z"/>
    <path class="a544760d-d506-487c-a66e-15c8d67cf9f2" d="M32.64545,53.31928c.57507-2.6472,2.74929-3.0842,4.90425-3.5048a17.48135,17.48135,0,0,1,2.555-.27274c.9322-.042.875-.47587.42749-1.01-1.11763-1.33387-2.63493-.89862-4.04816-.81581a5.18681,5.18681,0,0,0-1.28957.39238c-1.45675.49582-1.61953.29539-1.61381-1.28569.005-1.37022.57961-1.81731,1.89977-1.96877a17.02015,17.02015,0,0,1,6.18849.08836,3.95715,3.95715,0,0,1,3.29994,3.48842c-.01146,2.76122-.09959,5.52518-.00108,8.28249.04668,1.30631-.411,1.67915-1.60749,1.52855a16.06346,16.06346,0,0,0-1.629-.01627c-.22254-.005-.61609-.004-.64061-.08939-.45646-1.589-1.16083-.4368-1.73236-.14941-2.64929,1.33219-5.53127.51674-6.4791-1.84763A9.72352,9.72352,0,0,1,32.64545,53.31928Z"/>
    <path class="a544760d-d506-487c-a66e-15c8d67cf9f2" d="M46.83176,54.41558c-.61267-3.02682-.63956-5.95832,1.92858-8.18958,2.29209-1.99142,6.57466-2.13281,9.56481-.46689.11186.94528.02038,1.89419.05076,2.84088.02929.91327-.46528.97781-1.1355.67409-.45218-.20491-.80159-.58425-1.2476-.8109-2.38664-1.2128-4.56625.0108-4.7046,2.67062-.0687,1.32057-.13106,2.71453,1.20013,3.51815a3.895,3.895,0,0,0,4.1213-.16121c.34856-.194.65124-.50643,1.10527-.429,1.08022.99337.78025,3.457-.48456,3.97971-2.95944,1.223-7.0601.46408-9.08345-1.61023C47.56129,55.83086,47.40643,54.99569,46.83176,54.41558Z"/>
    <path class="abd83424-5b56-4267-a8f9-efea5ed645a4" d="M57.71491,54.06175a4.75559,4.75559,0,0,1-2.69831,1.43034c-1.91076.24811-3.27431-.40694-3.83823-1.80135-.73649-1.82113-.26677-4.4565.965-5.41386a4.00759,4.00759,0,0,1,4.67613.23355c.38065.27433.67708.91649,1.22731.64064.52894-.26519.21718-.89568.25074-1.361.04865-.67447.02134-1.35442.027-2.03151.37532.535.17777,1.1407.18716,1.71075.02943,1.78872.01188,1.789,1.8629,1.78476q.00066,4.20826.00132,8.41653c-1.81587.2193-1.84354.19556-1.84656-1.58044-.00085-.49559.00762-.99144-.006-1.48668C58.50838,54.05782,58.36819,53.66935,57.71491,54.06175Z"/>
    <path class="e6c59026-cb28-46cd-b2d9-0001aa86c216" d="M40.826,53.5803a1.89677,1.89677,0,0,1-2.0584,2.076c-1.33917-.01681-2.03313-.58745-1.98729-1.63414.04947-1.12946,1.17755-1.71436,3.03-1.81923C41.0405,52.13326,40.82222,52.87845,40.826,53.5803Z"/>
  </g>
</svg>
