<svg id="b0d65e51-86c4-4d25-8920-e74cfc73aa58" data-name="Layer 1" xmlns="http://www.w3.org/2000/svg" xmlns:xlink="http://www.w3.org/1999/xlink" viewBox="0 0 402.88 103.2">
  <defs>
    <style>
      .a93d6cb8-9571-4c85-bd73-8ca094e9da30 {
        fill: none;
      }

      .ee1ba64f-5f51-4cbd-8657-ff86a842318c {
        fill: #1b2840;
        stroke: #000;
        stroke-miterlimit: 10;
      }

      .bd0a0dfe-4319-45dd-9727-bdaade0cfdd1 {
        clip-path: url(#e0838217-ad61-466e-bb2b-491a76fcc1f4);
      }

      .a9376d71-0c04-41eb-8fa0-301ec6a97ff3 {
        fill: #fff;
      }
    </style>
    <clipPath id="e0838217-ad61-466e-bb2b-491a76fcc1f4" transform="translate(0.50399 0.5)">
      <rect class="a93d6cb8-9571-4c85-bd73-8ca094e9da30" width="401.87601" height="102.2"/>
    </clipPath>
  </defs>
  <rect class="ee1ba64f-5f51-4cbd-8657-ff86a842318c" x="0.5" y="0.5" width="401.88" height="102.2"/>
  <g class="bd0a0dfe-4319-45dd-9727-bdaade0cfdd1">
    <path class="a9376d71-0c04-41eb-8fa0-301ec6a97ff3" d="M401.878,33.614V19.602h-5.937V32.145c0,2.142-.094,5.754-5.541,5.754s-5.538-3.612-5.538-5.754V19.602h-5.936V33.614c0,2.449.305,8.444,11.474,8.444s11.474-5.994,11.474-8.444M377.086,50.62c-4.616,0-6.657,3.035-6.657,6.114,0,4.463,3.51,6.072,6.683,6.072a6.614,6.614,0,0,0,4.892-1.926h.065v1.449c0,1.56-.519,3.466-4.093,3.466-1.905,0-3.378-.249-3.7-1.79h-3.261c.272,3.1,3.33,3.918,7.042,3.918,5.3,0,7.136-2.537,7.136-5.392V50.89h-3.129v1.769h-.044c-.724-1.272-2.514-2.039-4.938-2.039m4.982,6.026a3.726,3.726,0,0,1-3.68332,3.7682q-.17353.002-.34668-.0122c-3.282,0-4.346-1.945-4.346-3.71a3.765,3.765,0,0,1,3.84128-3.68714q.11753.0024.23472.01214c1.606,0,4.3.747,4.3,3.629M370.399,30.863V30.8c2.479-.887,3.551-2.6,3.551-5.262,0-2.236-1.01-5.936-7.067-5.936H351V41.451h5.934V33.432h7.375c1.838,0,3.156.763,3.156,3.825,0,2.292.027,3.181.579,4.194h6.488c-1.042-1.1-1.132-3.675-1.132-4.744,0-2.144-.4-5.451-3-5.844m-2.753-4.376a2.65,2.65,0,0,1-2.845,2.782h-7.868V23.762h7.559c1.441,0,3.154.552,3.154,2.725M347.578,62.94h3.129V46.498h-3.129Zm-2.6-29.326V19.602h-5.937V32.145c0,2.142-.09,5.754-5.536,5.754s-5.541-3.612-5.541-5.754V19.602h-5.936V33.614c0,2.449.305,8.444,11.476,8.444s11.472-5.994,11.472-8.444M322.149,50.62a5.791,5.791,0,0,0-4.74,2.127h-.044V50.936h-3.124v12h3.123V56.485a3.451,3.451,0,0,1,3.42174-3.48q.15933-.00133.31826.012c2.579,0,3.01,1.475,3.01,2.767v7.155h3.127V54.787c0-3.238-2.516-4.166-5.1-4.166m-8.893-9.169h3V29.271h-11.14v3.794h5.294c-.7,3.612-3.213,4.836-6.455,4.836-5.388,0-7.281-3.98-7.281-7.373s1.893-7.375,7.281-7.375c2.142,0,4.681.793,5.568,3.606h6.611c-1.069-5.994-6.793-7.768-12.853-7.768-8.26,0-12.913,4.773-12.913,11.537,0,8.111,4.959,11.531,12.913,11.531,3.794,0,7.1-.914,9.182-3.15Zm-24.507,9.032c-4.643,0-7.431,2.581-7.431,6.457,0,3.307,2.062,6.45,7.431,6.45.837,0,5.932-.067,6.66-5.049h-3.26c-.655,1.7-1.314,2.646-3.738,2.646-2.692,0-3.823-1.966-3.823-4.047a3.851,3.851,0,0,1,4.161-4.058,3.162,3.162,0,0,1,3.328,2.267h3.261c-.657-4.053-4.777-4.666-6.588-4.666m-7.601-9.033h6.39l-9.6-21.849h-7.17l-9.609,21.849h6.4l1.776-4.5h10.034Zm-3.369-8.48h-6.856l3.425-8.656ZM254.89,30.863V30.8c2.479-.887,3.549-2.6,3.549-5.262,0-2.236-1.008-5.936-7.069-5.936H235.491V41.451h5.936V33.432H248.8c1.836,0,3.152.763,3.152,3.825,0,2.292.031,3.181.581,4.194h6.488c-1.039-1.1-1.134-3.675-1.134-4.744,0-2.144-.4-5.451-3-5.844m-2.755-4.376a2.65,2.65,0,0,1-2.843,2.784h-7.862V23.762h7.557c1.437,0,3.152.552,3.152,2.725M235.161,79.178c0,2.064,1.286,4.033,4.643,4.033.523,0,3.706-.042,4.16-3.156h-2.037a2.093,2.093,0,0,1-2.336,1.661,2.306,2.306,0,0,1-2.391-2.537,2.4,2.4,0,0,1,2.6-2.533,1.979,1.979,0,0,1,2.081,1.418h2.037c-.412-2.533-2.987-2.918-4.118-2.918-2.9,0-4.643,1.615-4.643,4.033m-.655-22.238c0-3.311-2.062-6.457-7.429-6.457s-7.432,3.146-7.432,6.457,2.062,6.45,7.429,6.45,7.429-3.144,7.429-6.45m-3.263,0c0,2.081-1.132,4.047-4.166,4.047s-4.166-1.966-4.166-4.047a4.1787,4.1787,0,1,1,8.337,0m-5.9-15.49h6.394l-9.609-21.849h-7.162l-9.608,21.849h6.4l1.776-4.5h10.031Zm-3.368-8.48h-6.854l3.422-8.656Zm-26.124,8.48h5.752V19.602h-8.719l-6.489,15.729-6.485-15.729h-8.72V41.451h5.753V23.944h.061l6.915,17.507h4.955l6.917-17.507h.061Zm-29.018,9.033c-4.256,0-7.224,2.56-7.224,6.565,0,3.2,2.016,6.342,7.429,6.342,4.574,0,6.2-2.646,6.885-3.984h-3.4c-.611,1-1.518,1.721-3.577,1.721-3.1,0-4.01-2.06-4.081-3.4h11.328v-.452c0-3.514-2.037-6.793-7.36-6.793m4.1,5.252h-8.065a3.887,3.887,0,0,1,4.012-3.123,3.817,3.817,0,0,1,4.053,3.123m-5.764-22.123V19.602h-5.936V32.145c0,2.142-.092,5.754-5.538,5.754s-5.538-3.612-5.538-5.754V19.602h-5.938V33.614c0,2.449.305,8.444,11.476,8.444s11.474-5.994,11.474-8.444m-26.583,7.837-10.8-13.068,10.035-8.78h-7.988l-10.157,9.393V19.602h-5.933V41.451h5.938V34.963l3.455-2.968,7.438,9.456Zm-25.381,15.49c0,3.307,2.058,6.45,7.429,6.45.837,0,5.934-.067,6.655-5.049h-3.259c-.657,1.7-1.313,2.646-3.738,2.646-2.7,0-3.828-1.966-3.828-4.047a3.854,3.854,0,0,1,4.169-4.058,3.155,3.155,0,0,1,3.326,2.267h3.263c-.655-4.053-4.779-4.666-6.588-4.666-4.645,0-7.429,2.581-7.429,6.457m-12.225-8.195,1.47-1.125-.14-1.51-1.778-.728c-.791-.322-1.74-1.613-2.656-2.859-1.4-1.905-3.1-4.212-5.674-5.2,1.27-2.336,1.119-5.1.993-7.387a10.663,10.663,0,0,1,.27-4.281l.686-1.5.2-.5-.665-.987-2.186.228c-.9.09-2.179-.542-3.556-1.2l-.153-.073a15.33,15.33,0,0,0-6.463-1.953,7.90745,7.90745,0,0,0-.893.052c.008-2.652-1.423-5.007-2.607-6.952a10.28712,10.28712,0,0,1-1.776-3.9L75.889,6.42a4.00029,4.00029,0,0,1-.908-.393L73.007,7.38c-.72.489-2.311.567-3.867.64-2.33.121-5.149.264-7.364,1.8-1.221-2.313-3.543-3.725-5.484-4.907a10.27094,10.27094,0,0,1-3.349-2.625L51.588.027c-.069,0-.134.008-.207.008a4.72473,4.72473,0,0,1-.552-.031L49.553,2.367c-.4.753-1.784,1.56-3.119,2.345-1.916,1.125-4.445,2.606-5.731,5.078-2.28-1.6-5.2-1.742-7.419-1.855-1.541-.075-3.137-.155-3.844-.636L27.453,5.942l-.916.611-.142,2.234a10.37507,10.37507,0,0,1-1.778,3.9c-1.186,1.947-2.617,4.3-2.608,6.961a7.43689,7.43689,0,0,0-.891-.054,15.334,15.334,0,0,0-6.473,1.96l-.113.054a9.98613,9.98613,0,0,1-3.413,1.215,1.13806,1.13806,0,0,1-.157-.006l-2.165-.23-.7,1.058.878,1.926a10.40005,10.40005,0,0,1,.27,4.277c-.13,2.284-.284,5.047.991,7.394-2.566.985-4.263,3.286-5.67,5.193C3.65,43.684,2.702,44.976,1.903,45.3l-1.767.724-.14,1.525L1.46,48.666A10.31787,10.31787,0,0,1,3.711,52.31c.958,2.062,2.115,4.558,4.323,6.026-1.782,2.127-2.192,5.03-2.508,7.249-.22,1.527-.445,3.11-.985,3.767l-1.071,1.3.211.519c.086.209.169.416.255.621l.2.481,1.6.255a10.33308,10.33308,0,0,1,3.7,2.129c1.711,1.282,4.01,3.006,6.693,3.244-.611,2.727.379,5.5,1.132,7.622.521,1.46,1.063,2.972.889,3.813l-.289,1.414.427.356c.236.2.477.4.717.586l.4.326,1.28-.437a12.226,12.226,0,0,1,4.311.161,24.747,24.747,0,0,0,3.832.389,9.07606,9.07606,0,0,0,3.47-.634c.761,2.656,2.907,4.616,4.535,6.1,1.142,1.046,2.324,2.125,2.564,2.951l.356,1.217.542.119c.356.075.715.153,1.073.222l.512.1.816-.872a10.29409,10.29409,0,0,1,3.855-1.88,14.79988,14.79988,0,0,0,5.806-3.1c1.772,2.355,4.589,3.319,6.919,4.114l.111.04a19.59962,19.59962,0,0,1,2.754,1.071l.4.213.341-.079c.4-.09.793-.184,1.184-.289l.339-.088.257-.374a22.85934,22.85934,0,0,1,1.537-1.9l.121-.138c1.571-1.8,3.648-4.175,4.087-7.245a9.20782,9.20782,0,0,0,3.2.531,24.97794,24.97794,0,0,0,3.876-.4,12,12,0,0,1,4.265-.155l1.2.414.4-.324c.259-.209.519-.418.776-.634l.427-.36-.276-1.339c-.169-.845.368-2.353.891-3.811.749-2.106,1.742-4.884,1.134-7.615,2.627-.218,4.769-1.815,6.687-3.246a10.309,10.309,0,0,1,3.7-2.135l1.554-.245.2-.473c.094-.222.184-.439.276-.659l.213-.519-1.044-1.274c-.54-.661-.766-2.238-.989-3.807-.312-2.194-.724-5.091-2.506-7.214,2.217-1.472,3.374-3.972,4.344-6.07a10.28714,10.28714,0,0,1,2.23-3.6m-.192-1.5-1.05.8a10.736,10.736,0,0,0-2.482,3.94c-1.056,2.282-2.317,4.995-4.955,6.112,2.294,1.876,2.736,5.007,3.085,7.482.247,1.719.475,3.338,1.173,4.194l.682.828c-.09.213-.178.429-.268.638l-1.029.161a10.6411,10.6411,0,0,0-4.062,2.28c-1.908,1.422-4.072,3.041-6.643,3.041a5.54463,5.54463,0,0,1-.674-.038c1.2,2.757.128,5.775-.717,8.14-.584,1.631-1.132,3.175-.91,4.252l.159.784c-.245.207-.5.41-.749.613l-.711-.243a11.30515,11.30515,0,0,0-4.645.115,24.06061,24.06061,0,0,1-3.681.383,7.418,7.418,0,0,1-4-1.029c.121,3.386-2.121,5.957-3.88,7.969a24.11141,24.11141,0,0,0-1.7,2.1l-.061.086c-.376.094-.761.188-1.144.278l-.088-.048a20.55032,20.55032,0,0,0-2.947-1.167c-2.543-.866-5.568-1.9-7.013-4.748-1.47,2.127-4.005,3.008-6.16,3.763a10.57516,10.57516,0,0,0-4.156,2.085l-.456.487c-.349-.067-.694-.138-1.04-.218l-.2-.673c-.305-1.058-1.512-2.163-2.79-3.33-1.828-1.673-4.145-3.79-4.426-6.727a7.347,7.347,0,0,1-4.1,1.092,24.29977,24.29977,0,0,1-3.677-.381,11.37392,11.37392,0,0,0-4.65-.119l-.784.272c-.232-.186-.464-.374-.692-.569l.176-.851c.222-1.083-.328-2.625-.914-4.258-.841-2.374-1.914-5.384-.713-8.14-2.8.312-5.246-1.454-7.318-3-1.431-1.067-2.778-2.075-4.056-2.276L5.43,71.152c-.084-.2-.165-.4-.247-.6l.7-.858c.7-.853.929-2.472,1.173-4.194.351-2.472.8-5.6,3.087-7.482-2.635-1.111-3.894-3.828-4.957-6.107a10.69978,10.69978,0,0,0-2.5-3.943l-1.039-.793c.013-.144.025-.289.04-.433l1.23-.5c1.019-.416,1.993-1.732,3.018-3.133,1.531-2.073,3.395-4.606,6.325-5.129-1.836-2.223-1.675-5.229-1.531-7.783a10.69976,10.69976,0,0,0-.349-4.654l-.653-1.435c.031-.05.063-.1.1-.149l1.575.165c1.125.117,2.566-.584,4.129-1.326a14.378,14.378,0,0,1,5.986-1.843,6.41911,6.41911,0,0,1,1.916.287c-.548-2.813,1-5.371,2.326-7.54.927-1.531,1.805-2.972,1.887-4.271l.113-1.746h0l1.445.987c.912.617,2.539.7,4.267.784,2.491.125,5.656.284,7.735,2.432.855-2.865,3.593-4.472,5.75-5.735,1.491-.876,2.9-1.7,3.422-2.673l.835-1.55.9,1.508c.669,1.117,2.11,1.989,3.633,2.916,2.146,1.3,4.673,2.836,5.5,5.553,2.033-2.081,5.1-2.232,7.695-2.363,1.728-.088,3.357-.169,4.267-.791L74.66,7.76l.111,1.759a10.64094,10.64094,0,0,0,1.903,4.252c1.32,2.171,2.87,4.721,2.324,7.54a6.46491,6.46491,0,0,1,1.918-.289,14.45489,14.45489,0,0,1,5.986,1.841c1.562.745,2.985,1.443,4.131,1.337l1.623-.172c.023.036.05.069.071.1l-.678,1.481a10.744,10.744,0,0,0-.349,4.656c.138,2.55.3,5.557-1.531,7.781,2.932.527,4.8,3.056,6.325,5.135,1.025,1.393,2,2.713,3.014,3.129l1.238.508c.015.14.027.28.04.418M77.734,78.671a37.49879,37.49879,0,1,0-26.512,10.98,37.369,37.369,0,0,0,26.512-10.98m8.927-26.513a35.73454,35.73454,0,1,1,0-.003M75.371,70.641l2.3.209.393-.517-2.886-.209L73.85,69.105l-.333.433,1.33,1.017.975,2.713.376-.489Zm2.322-2.06a1.589,1.589,0,0,0,2.037-.9,1.989,1.989,0,0,0-1.021-2.778,1.967,1.967,0,0,0-2.70478.64986q-.02242.0366-.04322.07414a1.608,1.608,0,0,0-.094,1.447l-.517-.119-.165.3,1.893,1.031.862-1.577-.406-.22-.623,1.15a1.236,1.236,0,0,1-.546-1.795,1.474,1.474,0,0,1,2.02176-.50779q.04407.02638.08624.05579a1.50707,1.50707,0,0,1,.853,2.066,1.11,1.11,0,0,1-1.374.638Zm1.533-4.631a1.966,1.966,0,0,0,2.60084-.98284q.03811-.08442.06816-.17216a1.966,1.966,0,0,0-1.20716-2.50462q-.08859-.031-.17984-.05338a1.968,1.968,0,0,0-2.60334.98423q-.0378.08376-.06766.17077a1.968,1.968,0,0,0,1.21179,2.50551q.08732.03039.17721.05249m.176-.515a1.494,1.494,0,0,1-1.162-1.76459q.01358-.06591.033-.13041a1.492,1.492,0,0,1,1.93418-.84326q.0621.0244.12182.05426a1.492,1.492,0,0,1,1.16579,1.75871q-.01377.06789-.03378.13429a1.491,1.491,0,0,1-1.93074.84759q-.06492-.02531-.12726-.05659m.149-6.5,3.577.676.1-.535-4.028-.761-.5,2.667.452.086Zm4.093-3.4a1.966,1.966,0,0,0-1.87556-2.05246q-.09318-.0042-.18644.00045a1.968,1.968,0,0,0-2.2121,1.689q-.01221.09109-.01589.183a1.968,1.968,0,0,0,1.87966,2.05254q.09213.00405.18434-.00054a1.964,1.964,0,0,0,2.2088-1.684q.01261-.09356.0162-.188m-.456-.019a1.49,1.49,0,0,1-1.60729,1.36266Q81.512,54.873,81.444,54.861c-.828-.033-1.671-.485-1.631-1.483a1.492,1.492,0,0,1,1.6075-1.36676q.06963.00564.1385.01777c.826.033,1.669.487,1.629,1.487m-3.719-3.073,4.068-.479-.059-.512-3.3.389v-.01l3.05-2.533-.069-.575-4.07.477.063.515,3.263-.385v.013l-3.014,2.508Zm-.615-4.422,3.945-1.117-.153-.525-1.694.481-.59-2.077,1.7-.481-.149-.523-3.941,1.119.146.523,1.807-.512.59,2.077-1.807.512Zm1.862-7.4a1.946,1.946,0,0,0-2.775-.85,1.881,1.881,0,0,0-1.14,2.617,1.67,1.67,0,0,0,2.16137.952q.03871-.015.07663-.032l-.232-.5a1.159,1.159,0,0,1-1.55064-.53112L77.236,40.233c-.412-.891.121-1.6.97-1.989a1.447,1.447,0,0,1,2.089.563,1.082,1.082,0,0,1-.305,1.41l.228.494a1.569,1.569,0,0,0,.5-2.092m-2-2.688.385-.251-1.554-2.366-3.422,2.253,1.562,2.378.385-.253L74.809,35.77l1.186-.78,1.167,1.782.387-.253-1.171-1.78,1.088-.715Zm-2.315-3.416.345-.3-2.15-2.472-.347.3.9,1.033-2.75,2.386.362.412,2.742-2.389Zm-4.6-4.765.28-.364-2.142-1.628-2.5,3.254.433.33,1.144-1.489,1.491,1.146.28-.366-1.493-1.146.793-1.033ZM67.63,26.608a1.971,1.971,0,0,0-.52294-2.73792q-.07436-.05051-.15307-.09408a1.968,1.968,0,0,0-2.67585.76539q-.04435.07987-.08114.16361a1.963,1.963,0,0,0,.51215,2.72845q.07847.05367.16185.09955a1.968,1.968,0,0,0,2.67736-.76013q.04461-.08.08164-.16387m-.477-.266a1.49,1.49,0,0,1-1.92984.84613q-.0654-.02553-.12816-.05713a1.49,1.49,0,0,1-.49794-2.0475q.03625-.05954.07794-.1155a1.49,1.49,0,0,1,1.92984-.84613q.06538.02553.12816.05713a1.49,1.49,0,0,1,.49794,2.0475q-.03626.05954-.07794.1155m-5.591-4.388.128-.439-2.717-.789-1.14,3.934,2.736.791.128-.439-2.211-.64.4-1.362,2.043.592.126-.439-2.041-.594.36-1.251Zm-5.028-.448.54.071a1.592,1.592,0,0,0-1.569-1.579,1.98707,1.98707,0,0,0-2.223,1.956,1.965,1.965,0,0,0,1.56013,2.29966q.04924.00942.09888.01634a1.6,1.6,0,0,0,1.38-.433l.079.525.341.044.278-2.138-1.78-.234-.061.454,1.3.172a1.233,1.233,0,0,1-1.477,1.155,1.473,1.473,0,0,1-1.20026-1.7026q.00849-.049.02027-.0974c.115-.872.634-1.671,1.619-1.544a1.112,1.112,0,0,1,1.09,1.052m-2.119,9.8-2.071.023h0l-.661-1.96V29.4l-.613,1.964h0l-2.071.023,1.688,1.2-.617,1.972v.006l1.663-1.234,1.684,1.192.006.008-.663-1.964h0Zm-2.7.83Zm0,0h0Zm.017-.01h0Zm.019.021-.031-.01h0Zm-2.372-8.2,2.847-.056-.008-.46-2.3.048-.037-1.426,2.129-.044-.008-.458-2.131.044-.025-1.3,2.286-.046-.01-.458-2.828.054Zm-3.52.458,2.69-.4-.071-.454-2.146.322-.54-3.6-.54.079Zm-3.445.891,2.61-.74-.123-.441-2.087.592-.993-3.5-.525.149Zm-1.809-1.585a1.974,1.974,0,1,0-3.67009,1.44462q.03726.083.08209.16238a1.969,1.969,0,0,0,2.50337,1.21945q.08634-.02978.16964-.06745a1.968,1.968,0,0,0,.99235-2.60025q-.03818-.08533-.08435-.16675m-1.1,2.349a1.493,1.493,0,0,1-1.94083-.83143q-.02493-.06227-.04418-.12657a1.492,1.492,0,0,1,.47849-2.055q.05915-.03679.12152-.068a1.493,1.493,0,0,1,1.9419.82893q.02549.06347.0451.12907a1.494,1.494,0,0,1-.48215,2.05708q-.05742.03561-.11786.06592m-3.156.224-.454.3a1.165,1.165,0,0,1-.3022,1.6196l-.03079.0204c-.82.542-1.6.119-2.11-.659a1.445,1.445,0,0,1,.238-2.15,1.08,1.08,0,0,1,1.441.092l.454-.3a1.566,1.566,0,0,0-2.142-.176,1.943,1.943,0,0,0-.425,2.87,1.884,1.884,0,0,0,2.759.734,1.668,1.668,0,0,0,.6131-2.27784q-.02022-.03508-.0421-.06916m-.42,5.432.878.623-.322,1.027h0l.866-.644.876.621h0l-.345-1.023h0l.866-.642-1.077.01-.347-1.019v.006l-.318,1.023h0Zm1.416.4Zm-.008,0Zm.01,0Zm5.35-.4.881.623-.322,1.027h0l.866-.644.876.621h0l-.345-1.023h0l.866-.642-1.079.01-.343-1.019v.006l-.318,1.023-1.077.01Zm1.416.4Zm-.008,0Zm13.794-.4.881.623-.32,1.027h0l.864-.644.874.621h.006l-.345-1.023h0l.864-.642-1.077.01-.343-1.019v.006l-.32,1.023h0Zm1.418.4Zm-.01,0Zm6.944-1.441v.006l-.32,1.023h0l-1.077.013.878.623L65.4,33.381h0l.866-.644.874.621h0l-.345-1.023h0l.864-.642-1.077.01Zm.015,1.439Zm-.006,0ZM33.701,39.262H32.515V69.75c5.942.023,12.47-3.37,17.806-1.226h1.583c6.124-1.926,11.847.659,18.015,1.226V39.259H68.741c-5.779-.529-11.14-2.949-16.879-1.146H50.381c-5-2.008-11.113,1.171-16.676,1.148Zm0,.989c5.612-.362,11.635-3.19,16.62-1.188h1.583c5.731-1.8,11.11.347,16.833,1.094V68.719c-5.779-.529-11.14-2.949-16.879-1.146H50.377c-5-2.008-11.113,1.169-16.676,1.146V40.248ZM49.363,41.59c-5.147-1.546-7.95.584-13.89,1.033v.259c4.677-.3,9.69-2.56,13.842-.954h.259v-.339Zm-13.89,2.826v.255c4.677-.3,9.69-2.558,13.842-.952h.259v-.343h-.211c-5.147-1.541-7.95.588-13.89,1.035m0,1.677v.257c4.677-.295,9.69-2.556,13.842-.952h.259v-.341h-.211c-5.147-1.544-7.95.586-13.89,1.035m0,1.753v.259c4.677-.3,9.69-2.558,13.842-.954h.259v-.341h-.211c-5.147-1.546-7.95.584-13.89,1.033m0,1.753v.259c4.677-.3,9.69-2.558,13.842-.954h.259v-.339h-.211c-5.147-1.544-7.95.586-13.89,1.033m0,1.753v.259c4.677-.295,9.69-2.558,13.842-.952h.259v-.341h-.211c-5.147-1.544-7.95.586-13.89,1.033m0,1.753v.261c4.677-.3,9.69-2.56,13.842-.952h.259v-.332h-.211c-5.147-1.544-7.95.586-13.89,1.033m0,1.755v.259c4.677-.3,9.69-2.56,13.842-.952h.259v-.343h-.211c-5.147-1.544-7.95.586-13.89,1.035m0,1.753v.26c4.677-.3,9.69-2.558,13.842-.952h.259v-.348h-.211c-5.147-1.541-7.95.588-13.89,1.035m0,1.755v.257c4.677-.3,9.69-2.558,13.842-.952h.259v-.343h-.211c-5.147-1.541-7.95.588-13.89,1.037m0,1.753v.258c4.677-.3,9.69-2.556,13.842-.952h.259v-.338h-.211c-5.147-1.541-7.95.588-13.89,1.035m0,1.753v.259c4.677-.3,9.69-2.558,13.842-.954h.259v-.341h-.211c-5.147-1.541-7.95.588-13.89,1.035m0,1.753v.259c4.677-.3,9.69-2.558,13.842-.952h.259v-.341h-.211c-5.147-1.544-7.95.586-13.89,1.033m0,1.755v.259c4.677-.3,9.69-2.56,13.842-.954h.228v-.339h-.18c-5.147-1.546-7.95.584-13.89,1.033m17.389-.922h-.18v.341h.23c4.15-1.606,9.165.655,13.842.952v-.259c-5.94-.448-8.745-2.579-13.892-1.033m13.976-.573v-.259c-5.942-.448-8.745-2.577-13.892-1.033h-.211v.341h.259c4.15-1.606,9.167.655,13.844.952m0-1.753v-.257c-5.942-.448-8.745-2.577-13.892-1.035h-.211v.335h.259c4.15-1.6,9.167.657,13.844.954m0-1.755v-.257c-5.942-.448-8.745-2.577-13.892-1.035h-.211v.341h.259c4.15-1.6,9.167.655,13.844.952m0-1.753v-.257c-5.942-.45-8.745-2.579-13.892-1.037h-.211v.347h.259c4.15-1.606,9.167.655,13.844.952m0-1.753v-.259c-5.942-.45-8.745-2.577-13.892-1.035h-.211v.343h.259c4.15-1.606,9.167.655,13.844.952m0-1.753v-.261c-5.942-.448-8.745-2.577-13.892-1.033h-.211v.343h.259c4.15-1.608,9.167.655,13.844.952m0-1.753v-.265c-5.942-.448-8.745-2.577-13.892-1.033h-.211v.343h.259c4.15-1.608,9.167.655,13.844.952m0-1.755v-.259c-5.942-.448-8.745-2.577-13.892-1.033h-.211v.341h.259c4.15-1.606,9.167.655,13.844.952m0-1.753v-.259c-5.942-.448-8.745-2.577-13.892-1.033h-.211v.339h.259c4.15-1.6,9.167.657,13.844.954m0-1.755v-.257c-5.942-.45-8.745-2.579-13.892-1.035h-.211v.341h.259c4.15-1.6,9.167.657,13.844.952m0-1.753v-.257c-5.942-.45-8.745-2.579-13.892-1.035h-.211v.341h.259c4.15-1.6,9.167.657,13.844.952m0-1.675v-.259c-5.942-.448-8.745-2.577-13.892-1.035h-.211v.343h.259c4.15-1.606,9.167.655,13.844.952m0-1.792v-.259c-5.942-.45-8.745-2.579-13.892-1.033h-.211v.339h.259c4.15-1.606,9.167.655,13.844.954M30.765,32.844a1.44,1.44,0,0,0-.042-2.255l-1.9-1.795-.377.4,1.9,1.792a.986.986,0,0,1,.082,1.544,1.018,1.018,0,0,1-1.592.059l-1.9-1.8-.374.4,1.9,1.8a1.453,1.453,0,0,0,2.3-.14m-3.921,1.422a.979.979,0,0,0-.452-1.175,1.089,1.089,0,0,0-1.592.416l-1.094,1.59,3.376,2.324.312-.448-1.443-1,.755-1.1c.3-.433.634-.322,1-.14.376.163.692.483.916.45l.347-.5a2.085,2.085,0,0,1-1.069-.441c-.353-.195-.7-.314-1.046.027Zm-.627.515-.642.935-1.18-.807.77-1.117a.646.646,0,0,1,.989-.2c.494.339.353.772.063,1.192m-1.073,3.014-2.357-1.136-.238.492,2.357,1.136a.986.986,0,0,1,.546,1.447,1.024,1.024,0,0,1-1.5.54L21.59,39.144l-.236.494,2.359,1.134a1.65389,1.65389,0,1,0,1.428-2.969m-3.229,3.859a1.591,1.591,0,0,0-1.8,1.3,1.988,1.988,0,0,0,1.583,2.5,1.964,1.964,0,0,0,2.50492-1.2q.015-.04267.02809-.086a1.6,1.6,0,0,0-.211-1.431h.529l.1-.326-2.069-.613-.506,1.721.439.132.37-1.253a1.23,1.23,0,0,1,.91,1.636,1.473,1.473,0,0,1-1.86838.92122q-.04842-.01644-.09562-.03622c-.843-.249-1.552-.889-1.272-1.841a1.111,1.111,0,0,1,1.209-.91Zm1.56,4.871-4.273,1.05-.079.6,3.853,2.125.073-.556-1.163-.617.228-1.717,1.282-.282Zm-1.841.989L21.449,48.9l-1.8-.941v-.01ZM18.872,52.23l.033,1.928,4.1-.069-.01-.544-1.749.027-.023-1.33c-.008-.527.33-.632.73-.694.4-.086.843-.008,1.006-.165l-.008-.611a2.071,2.071,0,0,1-1.127.261c-.4.044-.749.151-.832.627h-.01a.988.988,0,0,0-1.052-.694c-.653.01-1.067.5-1.054,1.263m.462.021a.644.644,0,0,1,.688-.738c.6-.01.736.422.745.933l.017,1.136-1.429.023Zm3.7,2.594-3.792,2.234.094.594,4.3.927-.088-.556-1.295-.253-.276-1.711,1.148-.64Zm-1.257,2.847-2-.383v-.01l1.78-.977Zm2.016,1.6-3.88,1.311.24.709,3.677.121L20.985,63.76l.238.707,3.882-1.314-.165-.487L21.713,63.76l-.006-.013,2.819-2.3-.148-.441-3.639-.119v-.01l3.229-1.092Zm.512,5.637-2.3,1.253.259.477,2.3-1.251a.986.986,0,0,1,1.493.4,1.021,1.021,0,0,1-.439,1.533l-2.3,1.253.259.477,2.3-1.251a1.65347,1.65347,0,1,0-1.575-2.893m2.4,5.72-2.365-.375.427.563,2.882.414-1.625,1.238.33.435,3.261-2.481-.331-.435-1.144.866-.92-.157.753-2.432-.416-.548Zm9.849,3.7a.867.867,0,0,0,.9.95.792.792,0,0,0,.84453-.73573L38.3,74.553h-.406a.439.439,0,0,1-.439.42c-.351,0-.487-.322-.487-.627,0-.563.295-.673.506-.673a.392.392,0,0,1,.42.347H38.3a.745.745,0,0,0-.81237-.67089L37.47,73.351a.891.891,0,0,0-.91,1m2.836.9V74.157a.452.452,0,0,1,.41563-.48565L39.844,73.67c.238,0,.354.125.362.414v1.161h.4V73.971a.583.583,0,0,0-.65-.627.645.645,0,0,0-.552.295h-.01v-.947h-.4v2.55Zm-.443,5.725.878.625-.322,1.027h0l.866-.642.876.619h0l-.345-1.023h0l.864-.642-1.077.013-.347-1.023v.006l-.318,1.023h0Zm1.416.4Zm-.008,0Zm1.569-6.078a.959.959,0,0,0,.638-.224.275.275,0,0,0,.314.224,1.161,1.161,0,0,0,.257-.044V74.97a.65068.65068,0,0,1-.1.006c-.073,0-.1-.038-.1-.138v-.947c0-.389-.376-.535-.736-.538-.41,0-.812.142-.841.617h.406c.019-.2.18-.295.41-.295.163,0,.381.038.381.249,0,.241-.261.207-.554.261-.341.04-.709.113-.709.575a.56.56,0,0,0,.577.54241q.02757-.00086.05495-.00442m-.226-.554c0-.215.157-.278.333-.31a1.334,1.334,0,0,0,.5-.111v.3c0,.259-.276.349-.456.349-.142,0-.374-.05-.374-.232m2.418-1.341H43.74v1.847h.401v-.881c0-.406.222-.63.5-.63.059,0,.117.013.176.017v-.391a.83283.83283,0,0,0-.155-.013.6.6,0,0,0-.538.408h-.006Zm.249,6.9v.51h.975v2.8h.711v-3.97h-.529c-.094.479-.613.663-1.157.659m1.512-5.009a.954.954,0,0,0,.64-.224c.031.165.151.224.314.224a1.09968,1.09968,0,0,0,.255-.044v-.284a.61143.61143,0,0,1-.1.006c-.075,0-.1-.038-.1-.138v-.947c0-.389-.379-.535-.74-.535-.4,0-.809.14-.837.615h.408c.017-.2.178-.295.406-.295.165,0,.381.038.381.249,0,.241-.261.207-.552.261-.341.04-.709.113-.709.575a.559.559,0,0,0,.57519.54232q.0275-.00082.05481-.00432m.151-.322c-.142,0-.374-.05-.374-.232,0-.215.157-.278.333-.31a1.36406,1.36406,0,0,0,.5-.111v.3c0,.259-.28.349-.458.349m1.573-.627a.865.865,0,0,0,.893.95.794.794,0,0,0,.84665-.73761L49.345,74.544h-.408a.437.437,0,0,1-.439.42c-.353,0-.489-.322-.489-.627,0-.563.3-.673.508-.673a.391.391,0,0,1,.42.347h.408a.748.748,0,0,0-.81819-.6705l-.01381.0015a.891.891,0,0,0-.908,1M50.09,81.78l.01.013c-.04.523-.119,1.362-.82,1.362a.555.555,0,0,1-.57857-.53038L48.701,82.611h-.648a1.151,1.151,0,0,0,1.2,1.081c1.123,0,1.5-1.1,1.5-2.054,0-1.155-.28-2.073-1.4-2.073a1.279,1.279,0,0,0-1.368,1.353,1.225,1.225,0,0,0,1.253,1.341.956.956,0,0,0,.858-.479m-.052-.868a.745.745,0,0,1-.647.83151q-.03634.00453-.073.00549c-.471,0-.692-.4-.692-.837s.222-.807.692-.807a.7291.7291,0,0,1,.72.807m.525-6.225v-.985h.368v-.3h-.368V72.85h-.408v.554h-.307v.3h.307v1.088c.008.305.088.471.51.471a2.31386,2.31386,0,0,0,.266-.023v-.312a.79973.79973,0,0,1-.171.013c-.182,0-.2-.084-.2-.251m.929-.366a.875.875,0,0,0,.9.97.808.808,0,0,0,.835-.627h-.383a.43.43,0,0,1-.452.305.4891.4891,0,0,1-.494-.544h1.353a.89188.89188,0,1,0-1.76346-.15866q.00039.02736.00246.05466m.408-.163a.482.482,0,0,1,.47495-.489l.008-.00005a.484.484,0,0,1,.464.489Zm-.218,8.287a1.4,1.4,0,0,0,2.8,0,.946.946,0,0,0-.726-.97v-.01a.833.833,0,0,0,.561-.816c0-.678-.448-1.083-1.236-1.086s-1.236.408-1.236,1.086a.835.835,0,0,0,.561.816v.01a.946.946,0,0,0-.724.97m2.023-1.765a.62333.62333,0,1,1-1.246,0,.62338.62338,0,1,1,1.246,0m-1.376,1.765a.7541.7541,0,1,1,1.508,0,.75493.75493,0,1,1-1.508,0m2.5-8.711c.056,0,.117.013.176.017v-.391a.82524.82524,0,0,0-.153-.013.593.593,0,0,0-.54.408h-.006V73.4h-.383v1.847h.4v-.881c0-.406.22-.63.5-.63m2.066-.655h.406v-.385H56.89Zm.406.32H56.89v1.847h.406Zm-.241,6.243-1.7,2.389v.638h1.7v.939h.613v-.939h.51v-.51h-.51V79.643Zm-.01.772h.01v1.745h-1.2Zm.954-5.764c.006.435.349.642.818.642.381,0,.822-.161.822-.6,0-.364-.3-.471-.594-.54s-.6-.1-.6-.3c0-.159.22-.188.339-.188.176,0,.337.054.374.247h.423a.679.679,0,0,0-.768-.569c-.337,0-.772.125-.772.529,0,.374.293.483.59.546s.594.092.607.307-.259.241-.412.241c-.218,0-.4-.086-.418-.32Zm3.669.594h.4V72.697h-.4Zm0-2.55,1.215.385h.408v-.385H61.668Zm.41.32H61.67v1.845h.408Zm-2.225,7.569.878.625-.32,1.027h0l.868-.642.874.619h0l-.345-1.023h0l.866-.642-1.077.013-.345-1.023v.006l.889,1.41294h0Zm1.42.4Zm-.006,0Zm-.006,0Zm1.736-7.971h-.3v.305h.3v1.541h.408V73.703h.345v-.305h-.345v-.192c0-.151.09-.19.2-.19a.592.592,0,0,1,.188.023v-.318a1.07468,1.07468,0,0,0-.287-.027c-.264,0-.51.082-.51.55Zm1.272.922a.876.876,0,0,0,.9.97.8.8,0,0,0,.832-.627h-.385a.423.423,0,0,1-.448.305.492.492,0,0,1-.5-.544h1.357a.89489.89489,0,1,0-1.77038-.16343q.00022.02974.00238.05943m.406-.163a.485.485,0,0,1,.481-.489h.008a.486.486,0,0,1,.462.489ZM129.396,56.941c0,3.307,2.06,6.45,7.429,6.45s7.425-3.144,7.425-6.45-2.058-6.457-7.425-6.457-7.429,3.146-7.429,6.457m3.261,0a4.17633,4.17633,0,1,1,8.332,0c0,2.081-1.129,4.047-4.164,4.047s-4.168-1.966-4.168-4.047M150.163,46.5h-3.122V62.942h3.125Zm6.524,0h-3.129V62.942h3.129ZM188.05,60.88v1.449c0,1.56-.521,3.466-4.1,3.466-1.9,0-3.374-.249-3.692-1.79h-3.261c.272,3.1,3.33,3.918,7.044,3.918,5.3,0,7.134-2.537,7.134-5.392V50.89H188.05v1.769h-.044c-.724-1.272-2.514-2.039-4.938-2.039-4.62,0-6.657,3.035-6.657,6.114,0,4.463,3.51,6.072,6.683,6.072a6.611,6.611,0,0,0,4.892-1.926Zm0-4.233a3.727,3.727,0,0,1-3.68541,3.76812q-.17249.00192-.34459-.01212c-3.284,0-4.346-1.945-4.346-3.71a3.764,3.764,0,0,1,3.83922-3.68725q.11856.00238.23678.01225c1.606,0,4.3.747,4.3,3.629m6.049.4c0,3.2,2.016,6.342,7.429,6.342,4.574,0,6.2-2.646,6.883-3.984h-3.4c-.613,1-1.518,1.721-3.579,1.721-3.1,0-4.007-2.06-4.079-3.4h11.33v-.452c0-3.514-2.037-6.793-7.36-6.793-4.256,0-7.224,2.56-7.224,6.565m3.259-1.314a3.886,3.886,0,0,1,4.012-3.123,3.823,3.823,0,0,1,4.053,3.123Zm43.915-4.8v-.929c0-1.09.251-1.426,1.677-1.426a14.23627,14.23627,0,0,1,1.608.092V46.406c-.726-.046-1.452-.088-2.811-.088-3.259,0-3.6,1.744-3.6,3.077v1.541h-2.468v2.263h2.468v9.74h3.125v-9.74h3.286V50.936Zm8.268,21.723h-1.952V82.931h1.952V78.894a2.153,2.153,0,0,1,2.13328-2.17254q.10048-.00091.20072.00754c1.615,0,1.885.918,1.885,1.728v4.474h1.951v-5.1c0-2.023-1.569-2.6-3.183-2.6a3.615,3.615,0,0,0-2.96,1.328h-.027Zm3.846-19.456h2.493v6.388c0,2.263.293,3.629,4.1,3.629a15.93928,15.93928,0,0,0,2.4-.186V60.771c-.749.025-1.472.046-2.242.046-1.067,0-1.132-.747-1.132-2.127V53.199h3.259V50.936h-3.258V47.221h-3.125v3.715h-2.493Zm5.994,27.665c0,1.47,1.1,2.347,3.056,2.347,2.194,0,3.144-.665,3.526-1.033.054.287.195.966,1.468.966a5.97662,5.97662,0,0,0,1.389-.172v-1.37a5.04715,5.04715,0,0,1-.636.042.378.378,0,0,1-.427-.427V77.664c0-.977-.113-2.518-4.035-2.518-2.221,0-3.677.607-3.961,2.575h1.91c.073-.837.766-1.247,2.052-1.247,1.134,0,2.125.213,2.125,1.075,0,.581-.3.68-3.1.95-1.247.115-3.367.3-3.367,2.366m2.035-.071c0-.638.353-.96,1.83-1.132a9.44389,9.44389,0,0,0,2.558-.466v.719c0,1.657-1.769,2.056-2.815,2.056-.667,0-1.573-.186-1.573-1.178m10.433-17.4c4.574,0,6.2-2.646,6.883-3.984h-3.4c-.611,1-1.516,1.721-3.577,1.721-3.1,0-4.01-2.06-4.079-3.4h11.326v-.452c0-3.514-2.035-6.793-7.358-6.793-4.261,0-7.224,2.56-7.224,6.565,0,3.2,2.012,6.342,7.429,6.342m-4.171-7.655a3.881,3.881,0,0,1,4.012-3.123,3.817,3.817,0,0,1,4.051,3.122Zm6.352,19.69h-1.953v7.5h1.954V79.304a2.209,2.209,0,0,1,2.393-2.263,3.828,3.828,0,0,1,1.244.182v-1.92a4.45164,4.45164,0,0,0-.778-.073,3.132,3.132,0,0,0-2.834,1.654h-.025Zm6.68,5.438c0,1.47,1.1,2.347,3.056,2.347,2.194,0,3.144-.665,3.528-1.033.054.287.2.966,1.468.966a5.94118,5.94118,0,0,0,1.387-.172v-1.37a5.00982,5.00982,0,0,1-.634.042.378.378,0,0,1-.427-.427V77.664c0-.977-.113-2.518-4.033-2.518-2.225,0-3.681.607-3.964,2.575h1.91c.073-.837.763-1.247,2.054-1.247,1.132,0,2.123.213,2.123,1.075,0,.581-.3.68-3.1.95-1.247.115-3.367.3-3.367,2.366m2.037-.071c0-.638.353-.96,1.828-1.132a9.46413,9.46413,0,0,0,2.565-.467v.719c0,1.657-1.774,2.057-2.82,2.057-.669,0-1.573-.186-1.573-1.178m10.337-1.615c0,2.064,1.284,4.033,4.639,4.033.521,0,3.708-.042,4.16-3.156h-2.037a2.093,2.093,0,0,1-2.336,1.661,2.308,2.308,0,0,1-2.393-2.537,2.406,2.406,0,0,1,2.606-2.533,1.973,1.973,0,0,1,2.079,1.418h2.038c-.412-2.533-2.989-2.918-4.12-2.918-2.9,0-4.639,1.615-4.639,4.033m8.067-22.694a3.448,3.448,0,0,1,3.4158-3.47991q.16029-.00149.3202.01192c2.585,0,3.016,1.475,3.016,2.767v7.155h3.125V54.787c0-3.238-2.516-4.166-5.1-4.166a5.775,5.775,0,0,0-4.733,2.127h-.046V46.5h-3.125V62.94h3.125Zm4.965,18.941h-1.553v1.416h1.556v3.993c0,1.416.186,2.261,2.56,2.261a10.2461,10.2461,0,0,0,1.5-.109V81.571c-.469.015-.92.031-1.4.031-.669,0-.711-.473-.711-1.334V76.842h2.039V75.426h-2.039v-2.32h-1.951Zm7.318,3.819c0,2,1.261,3.966,4.645,3.966a4.384,4.384,0,0,0,4.3-2.487h-2.123a2.294,2.294,0,0,1-2.24,1.075,2.268,2.268,0,0,1-2.53358-1.96688q-.01-.07979-.01441-.16012h7.078v-.28c0-2.2-1.274-4.246-4.6-4.246-2.663,0-4.516,1.6-4.516,4.1m2.037-.814a2.427,2.427,0,0,1,2.5-1.958,2.392,2.392,0,0,1,2.537,1.958Zm12.784-3.006h-1.954v7.5h1.954V79.304a2.207,2.207,0,0,1,2.391-2.263,3.84307,3.84307,0,0,1,1.249.182v-1.92a4.51583,4.51583,0,0,0-.78-.073,3.126,3.126,0,0,0-2.832,1.654h-.027Zm9.109-12.035c5.365,0,7.429-3.144,7.429-6.45s-2.064-6.457-7.429-6.457-7.417,3.146-7.417,6.457,2.06,6.45,7.427,6.45m-4.168-6.45a4.17719,4.17719,0,1,1,8.334,0c0,2.081-1.132,4.047-4.166,4.047s-4.168-1.966-4.168-4.047m11.461,15.714h-1.954v1.583h1.954Zm0,2.771h-1.954v7.5h1.954Zm5.789,5.154h-2.123c.071,2.294,2.6,2.631,4.2,2.631,2.324,0,4.15-.648,4.15-2.558,0-1.744-1.615-1.983-4.079-2.336-1.885-.27-2.066-.368-2.066-.981,0-.393.592-.862,1.7-.862.665,0,1.968.125,2.127,1.247h2.033c-.113-2.4-2.9-2.575-4.062-2.575-1.261,0-3.75.28-3.75,2.418,0,1.713,1.217,1.983,3.537,2.294,2.112.28,2.437.483,2.437,1.058,0,.711-1.063.966-2.037.966-.711,0-2.014-.167-2.069-1.3m10.47-17.189c5.367,0,7.427-3.144,7.427-6.45s-2.06-6.457-7.427-6.457-7.431,3.146-7.431,6.457,2.062,6.45,7.431,6.45m-4.171-6.45a4.17776,4.17776,0,1,1,8.335,0c0,2.081-1.132,4.047-4.164,4.047s-4.171-1.966-4.171-4.047m12.936,15.714h-1.951V82.931h1.951Zm6.055,0h-1.949V74.24h1.952Zm0,2.771h-1.949v7.5h1.952Zm4.645,0h-1.542v1.416h1.541v6.087h1.959V76.842h2.054V75.426h-2.054v-.575c0-.68.153-.893,1.046-.893a9.54085,9.54085,0,0,1,1.008.052V72.598c-.452-.031-.91-.056-1.761-.056-2.033,0-2.246,1.09-2.246,1.924Zm10.019-24.49h-3.4l5.595,11.8-.7,1.447a1.736,1.736,0,0,1-1.813.929c-.68,0-1.316-.021-1.562-.046v2.4c.611.021,1.426.042,1.949.042,2.6,0,3.37-.383,4.321-2.443l6.549-14.131h-3.326l-3.763,8.584Zm-3.211,28.309c0,2,1.261,3.966,4.643,3.966a4.375,4.375,0,0,0,4.3-2.487h-2.123a2.687,2.687,0,0,1-4.77-1.055h7.074v-.28c0-2.2-1.272-4.246-4.6-4.246-2.663,0-4.516,1.6-4.516,4.1m2.041-.814a2.422,2.422,0,0,1,2.5-1.958,2.389,2.389,0,0,1,2.533,1.958Z" transform="translate(0.50399 0.5)"/>
  </g>
</svg>
