<svg id="ae8798c1-e0ed-47a5-a8f6-a40c6954014e" data-name="Layer 1" xmlns="http://www.w3.org/2000/svg" viewBox="0 0 1847.20382 644.35796">
  <defs>
    <style>
      .a83955b8-637e-4cc0-8223-1c4652f475ea {
        fill: #368bb2;
      }

      .f6439772-5469-41a3-96df-a6164180d9d8 {
        fill: #83acca;
      }

      .ba06be10-402f-4c75-b111-576978e73d91 {
        fill: #060808;
      }

      .ba659f55-e609-4648-b40a-4bdd541d43ed {
        fill: #7fa9c8;
      }

      .e7e09a0a-127d-46c3-8019-4778de83ee67 {
        fill: #649cbe;
      }

      .bc18400c-f182-4361-942e-7d1e2d73108e {
        fill: #6ea0c2;
      }

      .b5c682ee-438d-47ed-a6a6-c13bb4f71436 {
        fill: #050708;
      }

      .ad3e9f9e-ed8c-45b1-bce7-fdbded0850eb {
        fill: #5997bb;
      }

      .a97302fc-ea12-4a58-b5e9-87ef709621b2 {
        fill: #77a5c5;
      }

      .b54cff6d-ae4d-4428-a55d-f2adc2f92b88 {
        fill: #060809;
      }

      .f3686ccf-ab5a-4ae4-9641-7edd2b977d84 {
        fill: #5093b8;
      }

      .e8ba83a2-426f-4bd4-8edc-d7c72d374131 {
        fill: #458fb6;
      }

      .a0a92b43-bf1a-4437-a1b1-f2a8a03960fb {
        fill: #070809;
      }

      .a3b77759-1483-4efe-943f-dee8ecb80369 {
        fill: #090b0c;
      }

      .e6183e49-cd6b-4c1e-a714-166c76e6a628 {
        fill: #07090a;
      }

      .a96526b2-0fbb-4135-8320-5f08e88f708f {
        fill: #0b0d0d;
      }

      .f964d3fc-7392-4985-9e75-d4ad1b8326b2 {
        fill: #0d0f10;
      }

      .e516bbde-813b-46f2-b161-2fcd080a804c {
        fill: #080a0b;
      }

      .bf52f0d7-aa54-42a7-88b5-e916eaef49d3 {
        fill: #545556;
      }

      .ea4ec946-762b-4c22-8095-e8c01465cafe {
        fill: #689ec0;
      }

      .b5995c56-759d-4f9f-8e3f-b577238a305f {
        fill: #609abd;
      }

      .a70168af-65f6-4d17-9e0d-64de64ff53f3 {
        fill: #73a3c3;
      }

      .a557c1e6-feef-4f47-a04a-8b0d678dfc05 {
        fill: #5796ba;
      }

      .b9b37277-338d-4921-827a-414cdb3595a2 {
        fill: #7da8c7;
      }

      .a99366fe-7ec1-49ee-a0a1-0fcfff250f4d {
        fill: #4991b7;
      }

      .f2bc8f04-2d49-438c-bd9f-aaf4891c9e95 {
        fill: #fefefe;
      }

      .f7b42950-f8c7-47c9-bd34-b0d9c3f75856 {
        fill: #fdfdfd;
      }

      .afcf185a-e3ad-4546-8273-1212cfaf8b25 {
        fill: #f3f3f3;
      }

      .fc0e8d56-6026-4558-a4c0-a6a0de38ee29 {
        fill: #f8f8f8;
      }

      .b0f02187-926a-4990-944e-7f20f50a63b7 {
        fill: #fafafa;
      }

      .a5e5870a-b2ca-491b-8db4-83d9cfa8b40e {
        fill: #8eb2ce;
      }

      .f56758d8-a1f5-4ccc-9aa2-5a4cf2c6f7f9 {
        fill: #7faac8;
      }

      .ffb9799a-d68b-42b5-89a5-ad1637541767 {
        fill: #86adcb;
      }

      .a8f8750b-2e27-402e-a757-31660a354e26 {
        fill: #4990b6;
      }

      .b151da89-a285-41dd-9733-4e7b4148a649 {
        fill: #3e8db4;
      }

      .a1fd569f-304b-49bb-8fdf-49b803d1427f {
        fill: #6a9fc0;
      }

      .e4fb6384-89e9-4cf5-948d-b5431c8e18e0 {
        fill: #6b9fc1;
      }

      .abb9b81a-0280-49ad-b1c9-cb449690a359 {
        fill: #74a4c4;
      }

      .b2bf028e-6d9f-4462-abbf-8428e3b04fc4 {
        fill: #76a4c5;
      }

      .a63fc6d1-101a-4cbb-a923-19176d8ecc5a {
        fill: #6ea1c2;
      }

      .b297c298-f78b-4cb9-bad3-16f50b6dc7ab {
        fill: #71a2c3;
      }

      .a0605bbb-9550-4c81-b918-07c16e9c5701 {
        fill: #619abd;
      }

      .b147586c-7d16-4d6b-8711-5b5cfe9f8694 {
        fill: #72a3c3;
      }
    </style>
  </defs>
  <g>
    <path class="a83955b8-637e-4cc0-8223-1c4652f475ea" d="M362.69131,874.77784q-75.52762-75.689-151.04357-151.38948c-2.68137-2.68884-5.194-5.5458-7.78517-8.32453.5832-5.70392,5.26412-4.57382,8.655-4.77981,9.59926-.58316,19.252.294,28.83378-.86936,4.08719-.44932,7.37275,1.47476,10.543,3.672a191.88856,191.88856,0,0,0,100.09811,34.62852c39.24866,2.31855,75.635-5.9278,109.74065-25.10184,3.58127-2.01338,7.072-4.23291,11.35717-4.49451,10.37437,1.317,20.80824.52389,31.19626,1.01346,4.06838.19175,9.16008-.50289,9.80794,5.81669-36.74072,38.92054-75.1902,76.15226-112.86755,114.14729-11.73332,11.83223-23.34563,23.78433-35.01332,35.68157Z" transform="translate(-42.41068 -230.41988)"/>
    <path class="f6439772-5469-41a3-96df-a6164180d9d8" d="M258.66445,335.99526Q307.2668,287.14352,355.84723,238.27c2.44094-2.45839,4.57-5.22617,6.84408-7.85013h3.52231c.90522,3.35234,3.84955,5.0596,6.07,7.28553q45.57561,45.68778,91.24274,91.28441c2.2523,2.25493,4.23967,4.77436,6.35018,7.17084-2.28653,4.56134-6.68657,4.38-10.69959,4.39084q-94.93854.25719-189.87738-.00974C265.26271,340.5288,260.90115,340.5523,258.66445,335.99526Z" transform="translate(-42.41068 -230.41988)"/>
    <path class="ba06be10-402f-4c75-b111-576978e73d91" d="M1889.6145,607.17563c-6.78708,12.9275-10.189,27.17934-15.87406,40.53534-2.86038,6.72-5.66206,13.48527-8.95327,19.99609-3.62228,7.16574-8.57123,13.41731-16.11463,16.79719-3.02054,1.35334-7.23747,5.60522-9.63541.79372-1.99893-4.01049-5.80825-9.3731,2.72278-13.31431,11.65843-5.38607,12.855-11.2062,7.99422-23.40187q-9.19932-23.07966-18.34746-46.25756a14.537,14.537,0,0,1,2.37623-.65241c14.16149-.68672,14.1574-.68078,18.619,12.749,3.02828,9.11612,6.07074,18.22755,9.64057,28.943,3.52855-11.89345,7.26069-21.94,9.345-32.31724,1.60873-8.00891,5.23617-10.90495,12.97284-9.48136a42.3536,42.3536,0,0,0,5.25423.32881Z" transform="translate(-42.41068 -230.41988)"/>
    <path class="ba659f55-e609-4648-b40a-4bdd541d43ed" d="M258.66445,335.99527c3.44159,2.1605,7.28724,1.82315,11.08973,1.82272q94.9408-.01079,189.8816-.00278c3.50587.00018,7.06231.34762,10.2413-1.65481q34.47453,32.40333,66.8943,66.86157c-3.31475,3.13466-7.51029,2.34457-11.45295,2.473-8.59075.27984-17.26136-.72215-25.696,1.74049-3.23219.50271-5.634-1.24071-7.88086-3.13455-34.3559-28.95785-74.40255-43.55367-118.83248-47.107a40.54732,40.54732,0,0,0-19.2081.1458c-23.01777,2.27619-45.695,5.99494-67.04226,15.49905a8.35447,8.35447,0,0,1-5.94719.80484c-13.658-2.741-27.466-.51875-41.17365-1.32708-4.51923-.2665-9.65127.894-12.45779-4.3754A435.32739,435.32739,0,0,1,258.66445,335.99527Z" transform="translate(-42.41068 -230.41988)"/>
    <path class="e7e09a0a-127d-46c3-8019-4778de83ee67" d="M661.82476,528.0501q11.267,10.88862,22.54274,21.7684c1.91589,1.84089,2.84608,3.52382.43346,5.77868-12.47225,11.65641-23.3449,24.9705-36.85955,35.54943-24.88951-1.21913-49.79617-.24679-74.692-.6032-4.634-.06635-9.447.64291-13.64139-2.24911a8.33512,8.33512,0,0,1-2.03623-6.54948c2.27712-15.72269.68048-31.57691,1.78953-47.3313a10.26421,10.26421,0,0,1,.99834-3.35571c2.07337-3.54716,5.65529-3.93457,9.14546-3.99125,29.4128-.47777,58.83091.14259,88.24462-.36354A6.7043,6.7043,0,0,1,661.82476,528.0501Z" transform="translate(-42.41068 -230.41988)"/>
    <path class="bc18400c-f182-4361-942e-7d1e2d73108e" d="M661.82476,528.05007a46.614,46.614,0,0,1-13.81434,1.71474q-38.64684-.167-77.29469-.00207c-3.07036.01066-6.52834-1.17161-9.06032,1.8169-4.2229-.45832-3.70441-3.99015-4.0393-6.65605a180.24107,180.24107,0,0,0-12.30419-45.61772c-1.61066-3.957-4.0351-8.02005-1.195-12.49614a7.73029,7.73029,0,0,1,5.39832-2.64127c16.31833-.49862,32.648-1.54606,48.9393.53292C620.20173,485.19405,641.40554,506.2299,661.82476,528.05007Z" transform="translate(-42.41068 -230.41988)"/>
    <path class="b5c682ee-438d-47ed-a6a6-c13bb4f71436" d="M1373.81272,614.47142c-.63217,13.73912-1.581,27.47379-1.776,41.21913-.11415,8.045-5.69914,4.46526-9.269,5.15356-4.48061.86394-5.37613-1.51143-5.07891-5.528q2.65529-35.89768,4.9496-71.82107c.204-3.25207.9082-4.34018,4.41246-4.60769,15.30919-1.16868,15.45355-1.36471,20.10959,13.22278,4.70484,14.74082,9.08634,29.58477,13.78365,44.95343,5.655-17.09234,11.17353-33.81847,16.7267-50.53308,2.05988-6.1998,16.33649-10.93187,21.4483-7.10637,1.62055,1.2129,1.27561,3.16457,1.37117,4.85838,1.30367,23.08153,2.53253,46.16733,3.87511,69.24654.25776,4.432.58443,8.15636-5.95777,7.48157-4.65529-.4801-8.86986.85964-8.96187-6.74172a483.75815,483.75815,0,0,0-3.7445-53.40843c-5.90435,17.55281-11.91769,35.07029-17.63554,52.68357-1.40633,4.33231-2.89983,6.65294-8.28058,6.72864-5.58165.07852-6.90542-2.61876-8.07871-6.84523-4.76374-17.15909-11.25758-33.82309-14.707-51.35975-2.02871-1.88718-2.29475-.07181-2.473,1.29335C1374.04533,607.04411,1375.13025,610.83361,1373.81272,614.47142Z" transform="translate(-42.41068 -230.41988)"/>
    <path class="ad3e9f9e-ed8c-45b1-bce7-fdbded0850eb" d="M559.776,587.76331q39.03936.02322,78.07873.0756c3.65781.00986,7.82142-1.11729,10.08672,3.30786-13.6222,14.05817-27.20667,28.15337-40.90836,42.13379-1.97894,2.01916-3.46207,4.80839-6.65035,5.39947-18.44711-1.496-36.93856-.20037-55.39647-.87076-3.105-1.86883-2.03129-4.60248-1.04338-6.90475,5.29718-12.34536,8.75693-25.23793,11.87663-38.252C556.33071,590.52018,556.57241,587.858,559.776,587.76331Z" transform="translate(-42.41068 -230.41988)"/>
    <path class="b5c682ee-438d-47ed-a6a6-c13bb4f71436" d="M906.64473,609.50963c14.12441-11.90025,22.0236-12.16018,33.41705-1.9,2.78073,2.50416,3.605,1.27429,5.387-.48274,6.93617-6.83891,15.13344-9.06892,24.12981-5.01827,8.8591,3.98875,11.38969,12.08075,11.52954,21.04023.1693,10.84821-.24992,21.712.15457,32.54776.24272,6.50126-3.95551,5.08936-7.53931,5.1746-3.76277.08959-7.67572.97813-7.36882-5.35451.45361-9.36249.2841-18.76737.06406-28.14681-.2166-9.2333-4.49265-14.84411-10.61091-14.58644-6.31346.266-10.29649,5.75864-10.42784,14.8057-.132,9.08934-.4347,18.206.103,27.26528.38869,6.55228-3.36119,6.16413-7.681,6.06242-4.08536-.09623-8.22866.91377-7.86393-5.87467.51843-9.64961.19413-19.349.09384-29.02574-.06944-6.692-1.89273-13.04663-9.79236-12.99248-7.2121.04943-10.82718,5.54782-11.10408,12.42829-.38869,9.6624-.54918,19.37038-.044,29.01894.314,5.99615-2.32259,6.81036-7.23812,6.49434-4.13642-.26595-7.87544.66818-7.75064-5.98379.30249-16.10819-.19424-32.23249-.44674-48.34906-.04611-2.93687.1663-5.57008,4.02646-4.98233C901.81509,602.27964,909.0502,598.07915,906.64473,609.50963Z" transform="translate(-42.41068 -230.41988)"/>
    <path class="a97302fc-ea12-4a58-b5e9-87ef709621b2" d="M598.4545,464.70138c-13.52939,3.5209-27.30772.77266-40.94567,1.60662-4.62621.2829-9.39882-.68772-13.71405,1.84849-3.39537.017-4.14674-2.87963-5.32153-5.07765-9.71264-18.1721-21.43325-34.82594-36.43152-49.08421-2.0279-1.92787-4.60148-3.85372-3.796-7.36621,2.57859-3.34247,6.20877-3.72149,10.05834-3.69147,9.48923.074,18.9791.06212,28.468.0849C557.972,422.94263,578.6038,443.43167,598.4545,464.70138Z" transform="translate(-42.41068 -230.41988)"/>
    <path class="b5c682ee-438d-47ed-a6a6-c13bb4f71436" d="M1306.31248,653.53076c-8.759,8.01839-18.09873,8.90274-27.53281,4.49013-10.04979-4.70053-13.89383-13.82211-14.33907-24.42165-.69246-16.48492,6.90446-28.64822,20.03392-32.26706a22.11825,22.11825,0,0,1,7.77353-1.00594c8.1359.78754,15.664,7.46744,24.58773,1.48935,2.69838-1.80774,5.67625-.17217,5.527,4.6838-.53112,17.27856.27776,34.63139-.948,51.84744-1.69967,23.87293-28.20624,36.7182-49.08086,24.74751-5.24434-3.00745-.95045-6.06462-.79845-9.02756.19467-3.793,2.24992-3.95028,5.43031-2.41658a28.6368,28.6368,0,0,0,8.43246,2.29763C1299.86734,675.95232,1306.77534,669.56531,1306.31248,653.53076Z" transform="translate(-42.41068 -230.41988)"/>
    <path class="b5c682ee-438d-47ed-a6a6-c13bb4f71436" d="M1010.51043,657.2484c0,7.2182-.54939,14.23952.15318,21.13331.715,7.016-3.249,6.66358-7.94208,6.6134-4.49018-.048-8.13977.80145-7.99024-6.39282.48049-23.12338-.07374-46.2668.05987-69.40084.01569-2.69905-2.73612-7.77715,3.76256-7.58108,4.63529.1398,10.78193-2.0721,9.94574,7.63688,7.29917-6.51432,14.63392-10.14761,23.5099-8.80153a23.49365,23.49365,0,0,1,14.34713,7.769c9.41409,10.50933,10.12365,31.40681,1.4375,43.52557C1039.63982,663.12685,1027.00161,665.107,1010.51043,657.2484Z" transform="translate(-42.41068 -230.41988)"/>
    <path class="b5c682ee-438d-47ed-a6a6-c13bb4f71436" d="M754.96653,525.521c8.26515-25.65316,16.55266-51.19384,24.655-76.79306.84849-2.68083,1.99474-3.5721,4.75563-3.89489,14.2821-1.6698,15.76485-.85807,20.23756,12.877,6.60735,20.29054,13.22846,40.57736,19.63834,60.93041.76126,2.41731,4.52871,6.80942-.57815,7.433-4.44067.54227-10.5735,3.43267-14.03078-2.592a22.81212,22.81212,0,0,1-2.81834-8.27437c-1.19425-9.4596-5.81363-12.57582-15.657-12.293-9.52819.27374-15.2892,1.34015-17.43416,12.31814C771.214,528.13292,770.17688,527.93042,754.96653,525.521Z" transform="translate(-42.41068 -230.41988)"/>
    <path class="b54cff6d-ae4d-4428-a55d-f2adc2f92b88" d="M1584.93669,608.19538c1.734-1.15466,2.42815-1.56043,3.06074-2.04645,15.65456-12.03033,33.06082-5.18419,35.12962,14.50987,1.2481,11.88134.34527,23.9806.59164,35.97818.129,6.28055-4.502,4.19566-7.40559,4.10037-3.15415-.10356-8.2723,2.45091-8.21683-4.33081.07911-9.662.16328-19.32812-.0287-28.987-.19091-9.6018-4.53167-14.94588-11.43753-14.64215-6.93649.30506-11.46149,5.87735-11.64047,14.8764-.18628,9.36622-.37891,18.75429.059,28.10345.30689,6.55252-3.97346,5.17807-7.48685,5.066-3.64916-.11635-8.38227,1.88339-8.30143-5.29925q.42534-37.76751.01762-75.54245c-.07933-7.97812,5.48137-4.75308,9.13773-5.35759,4.5436-.75124,6.92413.52333,6.64293,5.94808C1584.60486,589.32566,1584.93669,598.12,1584.93669,608.19538Z" transform="translate(-42.41068 -230.41988)"/>
    <path class="b54cff6d-ae4d-4428-a55d-f2adc2f92b88" d="M798.718,662.444c-26.46363-.44889-43.09461-16.9261-42.32114-42.27944.81232-26.62442,20.40035-44.51818,46.581-42.47455a66.12249,66.12249,0,0,1,10.44714,1.47731c3.299.80178,8.08327.3408,5.82642,6.77428-1.50952,4.30346-1.02925,7.75139-8.10553,5.98269-20.89316-5.22234-36.198,4.72127-38.13882,23.46809-2.49243,24.07411,12.95413,37.8836,36.87229,32.92211,3.88311-.80548,7.57091-2.89564,8.88458,3.80568,1.15371,5.88538-.67414,8.15467-6.11144,8.726C808.00306,661.33456,803.3625,661.90805,798.718,662.444Z" transform="translate(-42.41068 -230.41988)"/>
    <path class="b54cff6d-ae4d-4428-a55d-f2adc2f92b88" d="M1265.29743,496.90556c-.0688,18.79679-12.21147,31.14489-30.53077,31.04742-17.87353-.09507-29.5556-12.441-29.37394-31.04315.18574-19.01822,11.9838-30.92511,30.59183-30.874C1254.13089,466.08573,1265.367,477.9185,1265.29743,496.90556Z" transform="translate(-42.41068 -230.41988)"/>
    <path class="b5c682ee-438d-47ed-a6a6-c13bb4f71436" d="M883.99531,631.11134c-.03881,19.0078-11.80386,30.96114-30.451,30.938-18.28017-.02267-29.71259-11.84136-29.61966-30.6205.09276-18.73877,12.21964-31.16047,30.50723-31.2489C872.2165,600.09392,884.03336,612.45763,883.99531,631.11134Z" transform="translate(-42.41068 -230.41988)"/>
    <path class="b54cff6d-ae4d-4428-a55d-f2adc2f92b88" d="M1680.409,608.79417c8.46309-8.0135,17.55427-11.28365,27.77573-6.42156,10.16621,4.83593,11.92759,14.47119,12.04916,24.52607.11351,9.38033-.36569,18.78478.15468,28.13752.37655,6.76791-3.75665,5.952-7.854,5.83912-3.81674-.10514-8.37066,1.5491-7.97735-5.54765.53467-9.64515.25562-19.34451.08664-29.01645-.124-7.10287-2.5954-12.88617-10.73645-13.44808-6.63638-.45806-11.84761,5.44621-12.04443,13.47578-.22993,9.37614-.57928,18.80023.10663,28.13129.52241,7.10741-3.45191,6.391-8.03775,6.5-4.97873.11839-8.09655-.16784-7.87909-6.83923.48629-14.92992-.16156-29.8939.06159-44.83789.03956-2.64557-2.96421-7.32939,3.57176-7.79169C1676.90791,600.99064,1678.5102,601.62317,1680.409,608.79417Z" transform="translate(-42.41068 -230.41988)"/>
    <path class="b54cff6d-ae4d-4428-a55d-f2adc2f92b88" d="M958.7744,466.03576c18.05465-.11621,29.98664,12.01093,29.98858,30.479.00193,18.60183-12.38722,31.39934-30.43521,31.43818-17.86837.03847-29.98654-12.33757-30.019-30.65779C928.27555,478.56621,940.37254,466.1542,958.7744,466.03576Z" transform="translate(-42.41068 -230.41988)"/>
    <path class="b54cff6d-ae4d-4428-a55d-f2adc2f92b88" d="M1397.955,496.58983c.204-18.85957,12.15386-30.67445,30.90248-30.55367,17.85225.115,29.62107,12.65652,29.27279,31.1948-.35021,18.64068-12.8016,30.93822-31.10575,30.72135C1409.21161,527.74127,1397.75173,515.37746,1397.955,496.58983Z" transform="translate(-42.41068 -230.41988)"/>
    <path class="b54cff6d-ae4d-4428-a55d-f2adc2f92b88" d="M1289.08315,475.3039c4.70753-4.89137,8.817-8.01532,14.24394-8.95287,14.01423-2.42112,24.57193,5.46623,25.70081,20.56676.87134,11.65445.21552,23.42253.25132,35.14.02343,7.66266-5.78675,3.6929-9.04324,4.30717-3.37279.63616-6.91875,1.01392-6.64529-4.8088.453-9.64673.21961-19.33151.0947-28.99791-.11975-9.25866-3.97454-14.001-10.96585-13.89292-6.79191.105-11.61069,5.3876-11.82277,13.653-.248,9.66173-.47093,19.35687.06578,28.99461.368,6.60949-3.79986,5.355-7.31615,5.09016-3.45041-.2599-8.62585,2.43837-8.48-4.98483.29926-15.22851-.07159-30.47015.22208-45.69884.057-2.94784-3.50909-8.32244,3.54693-8.4668C1283.84934,467.15211,1290.13873,465.233,1289.08315,475.3039Z" transform="translate(-42.41068 -230.41988)"/>
    <path class="b54cff6d-ae4d-4428-a55d-f2adc2f92b88" d="M1103.2068,653.60756c-4.52543,4.00111-8.27391,7.22156-13.40936,8.15486-14.64779,2.662-24.87624-4.70274-25.88635-19.83163-.79781-11.94832-.10341-23.98979-.33054-35.985-.13436-7.0985,5.0514-3.9458,8.05259-4.20834,3.35032-.29308,7.92521-1.7917,7.65475,4.84767-.3688,9.05812-.13952,18.1429-.07771,27.21564.07513,11.03244,3.45889,15.9611,10.74086,15.85137,7.52684-.1134,11.45333-5.64547,11.52008-16.39356.05461-8.78012.32506-17.57551-.085-26.33677-.33731-7.20463,4.60649-5.09621,8.2522-5.28812,3.6785-.19363,7.3871-1.13416,7.27639,5.2294-.2696,15.48975.31656,30.99278.35418,46.49092.00731,3.0309,1.91487,7.22234-4.16759,7.64216C1105.67956,661.50848,1104.72234,661.217,1103.2068,653.60756Z" transform="translate(-42.41068 -230.41988)"/>
    <path class="b54cff6d-ae4d-4428-a55d-f2adc2f92b88" d="M1126.765,506.38964c-.01194,4.10262.24927,8.22739-.10707,12.29807-.22433,2.563,2.4934,6.97686-1.47673,7.36066-3.8894.376-9.61284,3.67775-12.126-2.59318-1.40095-3.4958-2.55091-.93238-3.55747-.22461a23.87827,23.87827,0,0,1-14.73786,4.73087c-8.40688-.233-14.75872-3.65586-17.54912-11.90662-2.83834-8.39228-.602-15.66088,6.21575-21.23518,6.66905-5.45267,14.84977-6.7853,23.09606-6.97329,6.50974-.14842,5.28443-3.44232,2.80007-6.45014-5.75332-6.96563-13.10914-4.69011-20.244-2.63254-2.71741.78364-5.57047,3.864-7.19823-1.68242-1.29-4.39568-1.15963-7.04544,3.842-8.60055a48.95741,48.95741,0,0,1,23.414-1.87762c8.90178,1.59955,14.38346,7.16542,16.41712,16.14722C1127.3279,490.58705,1126.50892,498.50419,1126.765,506.38964Z" transform="translate(-42.41068 -230.41988)"/>
    <path class="b54cff6d-ae4d-4428-a55d-f2adc2f92b88" d="M1503.92368,639.94669c0,4.40073.184,8.81221-.07191,13.198-.1434,2.45855,1.93518,6.03755-1.06741,7.1849-3.41944,1.30675-9.39118,2.175-10.78569-.26725-3.42395-5.99635-5.604-1.97185-8.53845-.39113-10.59381,5.70644-23.74724,2.276-28.30707-7.297-5.02936-10.55841.163-22.1637,12.11537-27.04481,4.95207-2.02236,10.2406-2.35106,15.45108-3.1407,1.91982-.2909,5.25133,1.428,5.32432-2.56054.05224-2.85381-1.56789-5.00162-3.953-6.44549-5.59831-3.38875-11.41334-1.87748-17.04734-.27823-3.42514.97228-6.34636,4.11743-8.25489-2.30273-1.6657-5.60332,1.23305-6.741,5.09257-7.88748,5.92133-1.75893,11.9322-2.90271,18.17322-2.36568,12.8217,1.1033,19.984,7.50857,21.39391,20.261.7045,6.37226.12264,12.88666.12264,19.33675Z" transform="translate(-42.41068 -230.41988)"/>
    <path class="f3686ccf-ab5a-4ae4-9641-7edd2b977d84" d="M544.15681,637.12331c12.81536-3.75071,25.92359-1.15627,38.88493-1.6472,5.85968-.22193,12.33938-1.962,17.34106,3.20406-12.62553,10.42831-21.80926,24.17-33.86535,35.13874-2.09309,1.90434-3.44846,4.781-6.63,5.35324-8.74468-1.25915-17.54842-.61233-26.32572-.8332-4.06553-.1023-8.28735.373-11.75415-2.53446-2.27792-2.56723-.94265-5.05669.56665-7.16512a240.71928,240.71928,0,0,0,17.14516-28.53572C540.409,638.40782,541.4617,636.313,544.15681,637.12331Z" transform="translate(-42.41068 -230.41988)"/>
    <path class="b54cff6d-ae4d-4428-a55d-f2adc2f92b88" d="M1214.07919,608.50872c3.47319-2.34088,5.72569-4.14787,8.22575-5.49605,13.90942-7.50051,30.05953.32223,31.39157,15.96613,1.065,12.50775.41944,25.16636.41138,37.758-.0043,6.81713-5.33958,3.55072-8.43859,4.05194-3.19318.51645-6.49266.67624-6.29713-4.51018.29765-7.89772.1506-15.816.03913-23.72343a66.76536,66.76536,0,0,0-.80157-9.59266c-.92885-5.79687-4.00582-10.21676-10.25339-10.02721-6.5349.19828-11.24049,4.04463-11.68336,10.83017a265.35089,265.35089,0,0,0-.515,29.82278c.32194,6.77028-2.65033,7.41654-8.22,7.48136-5.633.06555-7.57489-1.33891-7.38667-7.30671.46135-14.63168-.05655-29.29336.34279-43.92872.071-2.60661-3.93745-7.896,2.57993-8.03652C1207.897,601.70226,1215.21785,597.82257,1214.07919,608.50872Z" transform="translate(-42.41068 -230.41988)"/>
    <path class="b54cff6d-ae4d-4428-a55d-f2adc2f92b88" d="M1764.23342,635.64024c-4.98088.00371-9.97025.18294-14.94038-.04819-4.69925-.21854-4.81179,2.1289-3.38472,5.41393,2.14275,4.93252,5.98765,7.74258,11.269,8.762a40.12554,40.12554,0,0,0,16.56739-.529c3.6483-.82482,5.95745-1.11562,6.65723,3.62663.60109,4.072.40589,6.37041-4.41085,7.505a58.59721,58.59721,0,0,1-23.52925,1.08771c-16.33155-2.81553-25.19817-17.83638-21.82538-36.06779,3.22628-17.43964,17.09679-27.78166,33.29085-24.822,13.771,2.51676,23.49,18.09643,20.41444,32.15367-.652,2.98013-2.21069,2.91206-4.28658,2.91332Q1772.14444,635.64033,1764.23342,635.64024Z" transform="translate(-42.41068 -230.41988)"/>
    <path class="e8ba83a2-426f-4bd4-8edc-d7c72d374131" d="M521.42414,674.13485c9.30261,3.557,18.9772.88713,28.44611,1.6857,3.63266.30636,7.77-1.03839,10.01728,3.35168-13.05883,13.5009-26.07687,27.04183-39.22068,40.45962-1.95,1.9907-3.38886,4.78523-6.57231,5.31724-2.00312-4.03638-5.75611-3.17594-9.19453-3.35555-11.01567-.57531-22.178,1.58539-33.04588-1.75119-.66027-3.02625,1.83877-4.07426,3.60046-5.37291,14.62183-10.7789,28.54028-22.28646,39.8723-36.66127C516.74531,676.0089,517.91757,672.86737,521.42414,674.13485Z" transform="translate(-42.41068 -230.41988)"/>
    <path class="b54cff6d-ae4d-4428-a55d-f2adc2f92b88" d="M1368.0107,501.9983c-.00043-5.85613-.13243-11.71634.048-17.56688.11211-3.63466-.12749-6.40423-4.954-5.82629-3.58433.42915-3.56423-2.28086-3.26465-4.65212.29324-2.32253-1.51317-6.39282,2.34462-6.38717,6.38248.00937,5.6325-3.94653,6.06935-8.02613,1.54327-14.41287,12.06582-22.26972,26.317-20.34339,4.38709.593,5.87275,2.11019,5.3628,6.64966-.44437,3.95631-.42158,6.71383-5.85909,5.73254-5.30239-.95688-8.73506,1.83083-10.31713,7.20954-1.60529,5.45753-1.80233,9.36784,5.727,8.42221,4.37871-.55,6.84179.31922,6.94886,5.90373.11684,6.09-3.15588,6.01307-7.09741,5.4924-5.27283-.69661-6.26993,1.68736-6.14008,6.44842.31925,11.70355-.3802,23.449.28013,35.124.41427,7.32561-3.8391,6.2229-8.23221,6.36356-4.41429.14131-8.033.35619-7.3671-6.111C1368.50334,514.34683,1368.01113,508.14725,1368.0107,501.9983Z" transform="translate(-42.41068 -230.41988)"/>
    <path class="a0a92b43-bf1a-4437-a1b1-f2a8a03960fb" d="M1156.69163,451.70754c0,3.30292.26271,5.383-.04848,7.37344-1.00065,6.39894,1.169,9.359,7.96745,8.14387,4.63035-.82767,6.54081.69564,6.685,6.00431.1678,6.18312-3.25079,5.93874-7.09053,5.36681-6.21672-.92591-8.19684,1.38249-7.638,7.58771.62883,6.98417.26163,14.05535.39793,21.0873.09417,4.85844,2.71258,8.22543,7.46471,7.85232,4.89037-.384,5.83889,1.08505,5.93391,5.63074.10674,5.11032-2.12416,6.49184-6.64261,7.01487-12.8647,1.48922-20.404-3.75246-21.767-16.74375-.913-8.70207-.44706-17.55168-.53359-26.3359-.03161-3.20587.74255-6.75158-4.57112-6.07083-4.25767.5455-3.70075-2.67318-3.64669-5.24667.05848-2.77427-.90229-6.2491,3.86522-6.19644,1.67559.01851,4.47663.16529,4.11675-2.00516C1139.15627,452.93572,1149.26895,455.15,1156.69163,451.70754Z" transform="translate(-42.41068 -230.41988)"/>
    <path class="b54cff6d-ae4d-4428-a55d-f2adc2f92b88" d="M897.15336,528.18186c-3.39558-.61773-7.71807-1.32779-12.0067-2.20392-5.12782-1.04761-4.89026-4.00109-3.85468-8.46243,1.32388-5.70375,3.7904-3.76084,7.37549-2.79718,6.257,1.68183,14.75926,5.35606,17.75282-2.7192,3.06558-8.26962-6.39677-8.65087-11.577-10.98229-10.02551-4.51222-14.43517-10.81988-13.03766-19.32692,1.51994-9.25254,8.5549-15.02993,19.48022-15.51025a57.64858,57.64858,0,0,1,12.23265.85875c3.98507.68712,7.00055,2.1528,5.27369,7.6575-1.49447,4.76391-3.41472,5.5501-7.693,3.47848-2.01183-.97419-4.5321-1.10069-6.84136-1.2122-3.47179-.16768-6.6053,1.02311-7.69474,4.57653-1.22713,4.00326,1.90821,5.83768,4.802,7.32252,2.32818,1.19465,4.92681,1.84905,7.3512,2.87208,9.7156,4.0998,14.63618,11.11349,13.59823,19.27961-1.09094,8.58328-7.00066,14.23487-17.1802,16.26233C902.845,527.7312,900.482,527.8163,897.15336,528.18186Z" transform="translate(-42.41068 -230.41988)"/>
    <path class="a0a92b43-bf1a-4437-a1b1-f2a8a03960fb" d="M1148.17253,586.77833a46.37462,46.37462,0,0,1-.04913,6.69291c-1.02214,6.401,1.10513,9.39545,7.94305,8.15236,4.51265-.82042,6.68679.425,6.7099,5.86113.02419,5.69371-2.65528,6.48933-6.95939,5.82942-6.03817-.9258-8.42752,1.18515-7.75064,7.47258.53069,4.9289.05472,9.9612.119,14.94635.094,7.29853-.10223,14.70682,10.80751,13.7844,4.54532-.38429,2.70537,3.54864,2.919,5.76484.28281,2.93371.332,5.5245-3.84716,6.50761-13.71378,3.2259-23.25084-3.05532-24.42434-17.22-.69988-8.4491-.33677-16.98564-.46942-25.48258-.0402-2.57741.53962-5.83332-3.51231-5.623-5.025.2609-4.58241-2.914-4.76074-6.27381-.20445-3.84892.48963-6.30163,5.0974-5.66521,1.66119.22942,3.18533-.76459,2.985-2.38431C1131.49464,587.12681,1141.01922,589.09105,1148.17253,586.77833Z" transform="translate(-42.41068 -230.41988)"/>
    <path class="b54cff6d-ae4d-4428-a55d-f2adc2f92b88" d="M846.23164,527.888c-1.67151-.32336-5.117-.94885-8.54394-1.66294-4.4654-.93051-6.805-2.25914-5.19828-8.13,1.66844-6.09624,4.17538-4.96318,7.97917-3.10018a8.28113,8.28113,0,0,0,2.53628.66646c5.68619.74915,12.837,3.32162,15.10012-4.17156,2.12846-7.04767-5.34673-7.84568-9.85733-9.80617-7.4846-3.25309-14.49117-6.77364-15.299-16.15579-.615-7.14336,2.49522-12.59175,8.582-16.079,8.77579-5.02776,18.09061-4.45393,27.14653-1.08334,4.76643,1.774.89546,5.51561.58873,8.27132-.33333,2.99482-2.18328,3.06735-4.97335,2.14837-5.73489-1.88892-13.48047-5.14443-15.90352,2.71358-2.41809,7.84217,6.63089,7.86664,11.44312,10.05029,10.87222,4.93349,15.46215,12.03486,13.37077,21.78672C871.20617,522.64675,861.38926,528.349,846.23164,527.888Z" transform="translate(-42.41068 -230.41988)"/>
    <path class="b54cff6d-ae4d-4428-a55d-f2adc2f92b88" d="M1029.4591,466.02687a67.871,67.871,0,0,1,7.68464.92255c3.08579.64229,6.6224,1.24664,4.38483,6.116-1.36752,2.97586.24691,7.33135-6.53866,5.94457-13.39625-2.73779-21.601,2.31417-23.97394,12.793-3.40472,15.03527,7.37216,26.41947,22.62846,23.21463,4.95282-1.04043,6.84749-1.11713,8.06355,4.5469,1.27465,5.93734-1.8622,6.19827-5.81223,7.11961-16.524,3.85409-31.0104-1.2959-37.44458-13.49362-6.86791-13.01961-4.0917-30.01451,6.44407-39.44945C1010.694,468.54813,1017.98213,466.07049,1029.4591,466.02687Z" transform="translate(-42.41068 -230.41988)"/>
    <path class="b54cff6d-ae4d-4428-a55d-f2adc2f92b88" d="M1545.56036,662.08545c-13.712.1221-23.8743-4.28264-29.39812-16.48521-5.287-11.6796-2.83813-27.59138,5.80986-35.9571,9.9911-9.66505,22.04757-10.95824,35.09372-7.97546,5.2581,1.20223,3.17834,4.65363,2.74095,7.536-.526,3.46644-1.43073,5.15015-6.21672,4.12509-17.259-3.69642-28.64793,8.84364-23.29255,24.91653,3.09793,9.29769,10.64186,13.02649,23.711,10.84467,3.626-.60535,5.62153-.63425,5.89671,3.35928.21725,3.15205,2.497,6.86438-3.16963,8.22156A83.58384,83.58384,0,0,1,1545.56036,662.08545Z" transform="translate(-42.41068 -230.41988)"/>
    <path class="a3b77759-1483-4efe-943f-dee8ecb80369" d="M1481.0353,475.34c2.86854-2.54361,4.894-4.64543,7.22113-6.331,3.43213-2.4857,7.71173-4.45763,11.46988-2.34195,3.42353,1.92728,1.08363,6.4135,1.55907,9.731.42578,2.97089-1.01569,3.71953-3.97152,4.157-10.40184,1.53961-13.57534,4.95268-14.08915,15.40645a228.64022,228.64022,0,0,0,.01386,25.51307c.37451,5.96324-3.24294,5.40213-6.64991,4.92651-3.33721-.4659-8.88866,2.906-8.83954-4.62016.1091-16.72366.17844-33.45154-.12114-50.17082-.06826-3.80815,1.42363-4.97554,4.44954-4.32457,3.10879.66871,8.15384-2.96111,8.93263,3.52744A39.55138,39.55138,0,0,1,1481.0353,475.34Z" transform="translate(-42.41068 -230.41988)"/>
    <path class="e6183e49-cd6b-4c1e-a714-166c76e6a628" d="M1806.73821,610.56951c4.61745-3.96339,6.99282-6.64638,9.93489-8.354,3.1964-1.85527,8.12278-3.96318,10.30875-.767,1.94453,2.84361,1.13017,7.857.81586,11.85641-.19563,2.49019-2.80254,1.03154-4.3184,1.19445-8.54587.91844-13.28091,5.43224-13.49633,14.18659-.215,8.74807-.75481,17.51942-.33688,26.24153.31388,6.55156-3.46,6.02188-7.73236,6.018-4.23585-.00384-7.7629.57408-7.57694-5.99265.42954-15.16753-.15994-30.36143-.01977-45.54169.02773-3.017-2.65485-8.0995,4.37515-7.91293C1803.80345,601.63386,1809.13186,600.65027,1806.73821,610.56951Z" transform="translate(-42.41068 -230.41988)"/>
    <path class="a96526b2-0fbb-4135-8320-5f08e88f708f" d="M1051.28459,497.06817c.00022-8.2098.32431-16.43692-.11383-24.62329-.29088-5.43193,2.66012-5.76909,6.47793-5.231,3.45319.48669,8.795-2.46066,8.72119,4.90285-.1649,16.418-.24767,32.84208.03794,49.2567.12759,7.33353-4.94831,4.65527-8.46224,5.12041-4.25079.56266-7.19071.11769-6.79481-5.685C1051.68834,512.92888,1051.28449,504.98477,1051.28459,497.06817Z" transform="translate(-42.41068 -230.41988)"/>
    <path class="e6183e49-cd6b-4c1e-a714-166c76e6a628" d="M1171.34318,631.31631c-.00032-8.17221.31592-16.3603-.09427-24.51188-.36924-7.33667,4.77127-5.01994,8.29444-5.12232,3.32442-.09666,7.66346-1.8831,7.50276,4.84261q-.58545,24.50266.00957,49.02681c.15694,6.295-3.53489,5.62478-7.2551,5.27536-3.47373-.32623-8.77117,2.32546-8.52093-4.99612C1171.55859,647.66807,1171.34361,639.48852,1171.34318,631.31631Z" transform="translate(-42.41068 -230.41988)"/>
    <path class="e6183e49-cd6b-4c1e-a714-166c76e6a628" d="M1179.86153,496.44369c0-7.5883.52155-15.22335-.15328-22.75121-.61776-6.89046,3.15275-6.62542,7.88317-6.57954,4.68893.04553,8.2852-.31073,8.027,6.62621-.57509,15.447-.61776,30.94813.01354,46.3908.2956,7.23211-3.66818,6.31542-8.11837,6.41723-4.63336.10606-8.49073.53749-7.82255-6.47926C1180.43489,512.25855,1179.86153,504.32384,1179.86153,496.44369Z" transform="translate(-42.41068 -230.41988)"/>
    <path class="b54cff6d-ae4d-4428-a55d-f2adc2f92b88" d="M1652.15583,630.92305c.00032,7.88061-.41793,15.79066.13523,23.63229.42782,6.06413-2.45879,6.683-7.25467,6.40479-4.11406-.23873-7.90328.68833-7.71388-5.94542q.68672-24.06.0186-48.15153c-.19112-7.27607,4.569-4.86983,8.1217-5.26432,4.22994-.46972,7.21511-.11877,6.82395,5.69121C1651.75854,615.13514,1652.15562,623.04245,1652.15583,630.92305Z" transform="translate(-42.41068 -230.41988)"/>
    <path class="f964d3fc-7392-4985-9e75-d4ad1b8326b2" d="M1645.26761,577.18234c5.12212.11858,8.15631,3.096,8.168,8.14143.01311,5.66413-3.50727,8.33589-9.19158,8.09275-5.42869-.23221-8.0958-3.32468-7.88479-8.45235C1636.57426,579.73853,1639.8459,577.21463,1645.26761,577.18234Z" transform="translate(-42.41068 -230.41988)"/>
    <path class="e516bbde-813b-46f2-b161-2fcd080a804c" d="M1067.34516,451.59553c-.42052,4.67989-3.33087,7.57708-8.40194,7.61859-5.62971.04607-8.61993-3.20825-8.46428-8.81345.15178-5.4669,3.86521-7.82069,8.72377-7.64727C1064.1135,442.92871,1067.27346,445.73236,1067.34516,451.59553Z" transform="translate(-42.41068 -230.41988)"/>
    <path class="a3b77759-1483-4efe-943f-dee8ecb80369" d="M1187.89993,442.70081c5.11954.5334,8.18953,3.04894,8.07849,8.44361-.1105,5.36963-3.20446,8.06019-8.32153,8.07147-5.6267.01244-8.7184-3.138-8.49438-8.78934C1179.37685,445.022,1183.00891,442.96711,1187.89993,442.70081Z" transform="translate(-42.41068 -230.41988)"/>
    <path class="e516bbde-813b-46f2-b161-2fcd080a804c" d="M1180.88669,593.40365c-6.45278.10855-9.78483-2.15839-10.00949-7.4852-.23734-5.62454,2.72472-8.60738,8.45332-8.68123,5.44729-.07022,8.11052,3.13591,8.32787,8.046C1187.88821,590.47677,1184.80146,593.19712,1180.88669,593.40365Z" transform="translate(-42.41068 -230.41988)"/>
    <path class="bf52f0d7-aa54-42a7-88b5-e916eaef49d3" d="M1373.81272,614.47142c-1.054-5.95669-.29152-11.89032.1449-18.134,3.58853.74012,3.53317,3.1163,3.04182,5.73028C1372.52571,605.32641,1377.01341,610.88586,1373.81272,614.47142Z" transform="translate(-42.41068 -230.41988)"/>
    <path class="ea4ec946-762b-4c22-8095-e8c01465cafe" d="M46.85183,558.06848c-2.84613-2.30566-7.00811-4.05384-2.33834-8.61947q26.20716-25.62246,52.23139-51.432c2.0826-1.32122,4.40478-1.39668,6.76315-1.31643,18.98137.64591,37.96935.10208,56.95286.32134,4.05936.04688,8.22843-.34805,11.91713,2.00062,2.76438,2.98322,2.303,6.58742,1.4781,9.98334-4.12547,16.98354-4.20323,34.2466-3.99723,51.55734.04791,4.02615.54622,8.30035-2.65793,11.6502-1.25078-.04588-2.65309-.54984-2.8016-1.6724-1.43141-10.81917-9.38952-9.92569-17.127-9.903-28.3451.083-56.69063.00623-85.03586.05875C56.92636,560.70663,51.71845,560.48189,46.85183,558.06848Z" transform="translate(-42.41068 -230.41988)"/>
    <path class="b5995c56-759d-4f9f-8e3f-b577238a305f" d="M46.85184,558.06848c37.06892-.06214,74.13861-.02214,111.206-.293,5.78216-.04225,8.03211,1.84672,7.41227,7.55368-.24459,2.25193-.48476,4.71042,1.31345,6.65476,4.865,10.43739,8.56993,21.04982,4.94931,32.78008a13.35628,13.35628,0,0,1-6.78358,1.55377c-23.41794-.04419-46.84089.71831-70.25247-.40234Z" transform="translate(-42.41068 -230.41988)"/>
    <path class="a70168af-65f6-4d17-9e0d-64de64ff53f3" d="M172.75153,499.83336c-20.45241-.0169-40.90521-.10727-61.35695.00185a46.912,46.912,0,0,1-14.64968-1.81816c24.01578-25.28795,48.75525-49.85248,73.97-73.94183,12.84408-3.68121,25.60552-5.25122,38.04009,1.46823,2.90552,3.729.29614,6.68719-1.68118,9.40676-13.34364,18.35259-22.73639,38.66877-30.267,59.94433C176.07506,496.962,175.93239,499.69662,172.75153,499.83336Z" transform="translate(-42.41068 -230.41988)"/>
    <path class="a557c1e6-feef-4f47-a04a-8b0d678dfc05" d="M94.69679,605.91545c2.31118-3.32261,5.81967-2.20739,8.8942-2.21744,22.88559-.07484,45.77159-.033,68.65746-.02777a7.102,7.102,0,0,1,3.74439,4.6594,291.46136,291.46136,0,0,0,16.66524,39.70423c1.34084,2.65425,3.44122,5.99926-.94367,8.297a230.8994,230.8994,0,0,1-46.27039.33308Q120.07041,631.28969,94.69679,605.91545Z" transform="translate(-42.41068 -230.41988)"/>
    <path class="b9b37277-338d-4921-827a-414cdb3595a2" d="M210.07378,427.75787c-12.58941-6.89-26.24495-2.3938-39.35883-3.68265q27.21024-29.13921,56.36517-56.3341c8.3864,3.508,17.17147,1.25492,25.76262,1.68678,7.22779.36335,14.48966-.00341,21.73377.11572,2.68309.04412,6.08977-1.13742,7.09415,3.02754-2.88947,4.97434-8.58217,5.81185-12.912,8.64381-18.43142,12.05519-36.57887,24.39952-50.805,41.598C215.96252,425.22013,213.8279,427.91827,210.07378,427.75787Z" transform="translate(-42.41068 -230.41988)"/>
    <path class="a99366fe-7ec1-49ee-a0a1-0fcfff250f4d" d="M145.444,656.6639c15.913-4.02666,32.10955-1.03734,48.14863-1.94442,3.85166-.64191,4.889,2.69507,6.312,4.90523,10.92592,16.97057,23.8782,32.09283,39.73436,44.67133,2.03395,1.61344,4.00313,3.44673,3.87306,6.4452-9.46818,4.1289-19.44528,1.10915-29.1346,2.09183-3.57012.36207-7.64363-1.47079-10.51465,2.23049C183.8184,696.16826,164.49014,676.55713,145.444,656.6639Z" transform="translate(-42.41068 -230.41988)"/>
    <path class="f2bc8f04-2d49-438c-bd9f-aaf4891c9e95" d="M243.51206,710.74124a243.75871,243.75871,0,0,1-49.91938-56.02176c-8.67871-16.36294-16.1306-33.23846-21.34408-51.04924q-2.73236-15.84318-5.46473-31.6863c-.70043-24.27245.0411-48.42575,5.967-72.15064,7.00183-20.674,15.39912-40.70482,27.60663-58.92948,3.02871-4.52161,6.46285-8.77182,9.71348-13.14637,19.46452-22.18621,41.95314-40.54536,68.341-53.9636a30.26621,30.26621,0,0,1,3.25866-1.22131c22.86121-10.98914,47.24242-15.69354,72.3281-17.48575a78.30394,78.30394,0,0,1,19.111-.08355C420.65572,358.08,462.4444,375.1025,498.2459,406.6279a233.18533,233.18533,0,0,1,45.54968,61.52848,266.163,266.163,0,0,1,17.86,63.42275c.5961,18.76928.42986,37.51255-1.8794,56.18421a337.70221,337.70221,0,0,1-15.61941,49.36c-7.07989,12.64266-14.30935,25.19355-22.73278,37.01152-14.25872,17.69-31.08979,32.59222-49.56985,45.70752-23.62115,13.90181-48.48449,24.4137-75.82856,28.51348-53.70266,8.0517-102.81811-3.26835-147.35408-34.3688C247.00764,712.825,245.23436,711.81961,243.51206,710.74124Z" transform="translate(-42.41068 -230.41988)"/>
    <path class="f6439772-5469-41a3-96df-a6164180d9d8" d="M373.10978,355.00324q-9.55619.0426-19.11166.08437A28.17784,28.17784,0,0,1,373.10978,355.00324Z" transform="translate(-42.41068 -230.41988)"/>
    <path class="f7b42950-f8c7-47c9-bd34-b0d9c3f75856" d="M1306.87993,629.889a78.67781,78.67781,0,0,1-.73127,8.78323c-1.08438,5.3465-4.39558,8.93254-9.74441,10.11887-5.43622,1.20577-9.721-1.04412-12.9464-5.39733-5.025-6.78226-4.60207-19.95762.854-26.34565,3.296-3.85911,7.49384-5.62446,12.52557-4.51781a11.32876,11.32876,0,0,1,8.922,8.727A62.59582,62.59582,0,0,1,1306.87993,629.889Z" transform="translate(-42.41068 -230.41988)"/>
    <path class="f7b42950-f8c7-47c9-bd34-b0d9c3f75856" d="M1010.52785,629.07222a25.70161,25.70161,0,0,1,.29485-5.35343c1.04794-5.72178,4.7832-9.35171,10.22006-10.85627,4.943-1.3679,9.208.43707,12.60973,4.21183,6.00786,6.66682,5.98723,21.87174-.00828,28.57419-3.92691,4.39-8.75795,5.71093-14.27478,3.84156-5.52082-1.87071-8.604-5.81038-8.82922-11.74879C1010.46271,635.696,1010.52785,633.64524,1010.52785,629.07222Z" transform="translate(-42.41068 -230.41988)"/>
    <path class="afcf185a-e3ad-4546-8273-1212cfaf8b25" d="M790.05117,458.95411c3.27255,10.27738,6.17066,19.37889,9.069,28.48035.85354,2.68017.55515,4.063-2.89671,4.59861-14.40711,2.23576-16.352.25752-12.18207-13.13C785.94167,472.80206,787.732,466.66689,790.05117,458.95411Z" transform="translate(-42.41068 -230.41988)"/>
    <path class="f7b42950-f8c7-47c9-bd34-b0d9c3f75856" d="M1250.09229,497.49557c-.83651,3.20291-1.43223,6.99185-2.82415,10.46162-2.10707,5.25258-6.04721,8.51609-12.02422,8.51419-5.62594-.00178-9.18136-3.17739-11.53545-7.94594-3.42525-6.93821-3.22671-14.17886-.89455-21.25834,1.95776-5.943,6.01635-10.01574,12.80418-10.045,6.9437-.02989,10.47063,4.53938,12.57211,10.31283C1249.27126,490.50544,1249.42433,493.81344,1250.09229,497.49557Z" transform="translate(-42.41068 -230.41988)"/>
    <path class="f7b42950-f8c7-47c9-bd34-b0d9c3f75856" d="M839.7572,632.55551c.01516-6.029.826-10.32413,3.09476-14.17341,5.29358-8.98137,16.68107-9.051,22.09842-.16056,3.89,6.38381,4.13051,13.3546,2.35027,20.30491-1.77992,6.94914-5.62664,12.68355-13.64574,12.50582-7.509-.16637-11.09285-5.71037-13.00068-12.28115A34.33294,34.33294,0,0,1,839.7572,632.55551Z" transform="translate(-42.41068 -230.41988)"/>
    <path class="f7b42950-f8c7-47c9-bd34-b0d9c3f75856" d="M972.93761,496.51147c-.57852,4.81263-.83994,9.50288-3.47781,13.59758-5.65765,8.78229-16.9693,8.59749-22.0781-.529-3.74891-6.69694-4.18973-13.83089-1.82415-21.15016,2.04526-6.32826,5.65164-11.01278,12.84557-11.17958,7.82825-.18143,11.22716,5.241,13.32531,11.68876C972.52828,491.39675,972.57482,494.09943,972.93761,496.51147Z" transform="translate(-42.41068 -230.41988)"/>
    <path class="f7b42950-f8c7-47c9-bd34-b0d9c3f75856" d="M1413.4882,496.88085a27.91655,27.91655,0,0,1,2.41385-11.12226c2.43879-5.08694,6.13159-8.50492,12.10677-8.54924,6.0687-.045,9.91188,3.52806,12.01691,8.65081a26.732,26.732,0,0,1,.80179,19.64335c-2.2309,6.3112-5.67432,10.95073-12.951,10.95838-7.31368.00771-10.96746-4.6954-12.87621-11.031A70.41991,70.41991,0,0,1,1413.4882,496.88085Z" transform="translate(-42.41068 -230.41988)"/>
    <path class="fc0e8d56-6026-4558-a4c0-a6a0de38ee29" d="M1111.48308,504.15079c-.42234,7.71915-5.56886,13.27908-11.93231,12.82694-5.44063-.3866-8.45085-3.52371-7.99046-9.231.46942-5.81986,7.07484-9.56362,15.31188-9.86863C1112.98238,497.65183,1111.16329,501.62578,1111.48308,504.15079Z" transform="translate(-42.41068 -230.41988)"/>
    <path class="b0f02187-926a-4990-944e-7f20f50a63b7" d="M1488.88827,638.293c-.56541,8.32142-5.63217,13.453-12.54308,12.86509-5.22274-.44427-7.8289-3.48226-7.58758-8.67515.26938-5.80144,7.86609-10.43476,15.98736-10.4361C1490.18807,632.0459,1488.73628,635.69564,1488.88827,638.293Z" transform="translate(-42.41068 -230.41988)"/>
    <path class="b0f02187-926a-4990-944e-7f20f50a63b7" d="M1757.28876,624.79305a11.7634,11.7634,0,0,1-2.62024-.02939c-3.11889-.73145-8.35431,2.06375-9.0399-1.80882-.80533-4.55,2.71171-8.62741,7.3785-10.78648,3.70108-1.71237,7.36033-1.82171,10.86094.33811,3.71827,2.294,6.63293,5.95875,5.73408,10.05651-1.03172,4.703-5.8433,1.251-8.827,2.17709A12.26244,12.26244,0,0,1,1757.28876,624.79305Z" transform="translate(-42.41068 -230.41988)"/>
    <path class="a83955b8-637e-4cc0-8223-1c4652f475ea" d="M226.93433,439.65728c40.64985-48.72247,93.22738-69.26285,155.72817-63.86175,42.39316,3.66349,78.56078,21.94973,108.691,52.09137,4.16646,4.168,7.41145,8.93474,10.68443,13.73628-3.64324,5.13019-9.218,4.57313-14.40421,4.61109-23.17334.16959-46.348.06927-69.5222.07166q-85.80331.00884-171.60661-.00488c-4.1042-.00082-8.25333.29457-12.28569-.56008C230.8352,445.02375,227.05249,444.43477,226.93433,439.65728Z" transform="translate(-42.41068 -230.41988)"/>
    <path class="a5e5870a-b2ca-491b-8db4-83d9cfa8b40e" d="M503.54405,663.5015c-27.05113,35.78183-63.45116,57.18534-106.97525,64.65286-64.60825,11.08494-120.04751-8.03967-165.11557-56.02349-2.98025-3.17306-5.41275-6.86021-8.1-10.30825,1.86177-1.83493,4.215-1.77814,6.58085-1.74246,85.86329,1.29427,171.732.17835,257.59687.6231C492.95657,660.73134,498.7724,659.37864,503.54405,663.5015Z" transform="translate(-42.41068 -230.41988)"/>
    <path class="f56758d8-a1f5-4ccc-9aa2-5a4cf2c6f7f9" d="M204.46982,631.72335a117.357,117.357,0,0,1-12.71963-35.07956c2.66215-2.85078,6.23606-2.46383,9.564-2.42456a23.7479,23.7479,0,0,0,12.07173-3.50811c2.76638-.11,5.06733,1.253,7.37576,2.45895,5.13395,2.682,10.64474,2.59141,16.21476,2.63912,7.38863.06329,13.08907-4.92745,19.69771-6.37643,6.1681-1.35237,11.05447,5.99614,18.53942,4.94381,6.55215-.92118,9.36125-2.87165,9.26246-9.55875-.198-13.40608-.13893-26.81916-.00717-40.22794.03929-3.99784-.672-8.25716,2.53067-11.61711,5.32281,1.937,3.86615,6.59225,4.24068,10.51252.16866,11.38283.01457,22.77437.0702,34.16558.06237,12.77228,1.44867,13.95788,14.36981,12.455a19.61632,19.61632,0,0,0,5.074-1.23957,9.55477,9.55477,0,0,1,6.73411,1.16771c10.66092,5.78744,22.18444,6.17761,33.92211,5.94379,16.811-.33489,24.9026-6.57506,16.17684-26.53451,4.6423-4.72162,8.875-2.837,9.058,2.56041.27938,8.23757,4.44783,11.75033,11.31875,13.81631,2.23912,7.17895,7.45823,8.56018,14.32923,8.2528,6.3408-.28368,8.896-2.85438,8.85443-9.09208-.08573-12.87162-.3-25.753.1542-38.61407.12437-3.52068-1.60261-8.66791,4.57044-9.63,2.84082,3.508,2.253,7.7238,2.3062,11.7497.12332,9.33346-.06721,18.67051.07629,28.00353.14305,9.30113.817,9.93291,9.86894,10.38527,3.19989.16,6.43789-.00347,9.44381,1.3895,10.339,9.76735,22.07224,8.456,29.60768-3.34443a34.58266,34.58266,0,0,1,21.75611.02125c2.98092,8.66038,9.631,10.08483,17.69391,9.20736a34.24477,34.24477,0,0,1,10.29568.59589c6.48191,2.25945,13.405-.06343,19.913,1.8987a113.78991,113.78991,0,0,1-12.21776,33.41242c-3.37456,3.04251-7.57741,2.8319-11.66035,2.83523q-149.91984.12225-299.83966.0725A23.85073,23.85073,0,0,1,204.46982,631.72335Z" transform="translate(-42.41068 -230.41988)"/>
    <path class="a557c1e6-feef-4f47-a04a-8b0d678dfc05" d="M524.87561,476.59954a122.04646,122.04646,0,0,1,13.91921,42.54593c-7.335,4.76-15.71,1.54125-23.45836,3.07662-2.52371-.12776-4.18576-1.76188-5.96815-3.31452-11.2206-9.77426-21.7496-10.532-34.28419-2.547a54.28033,54.28033,0,0,0-5.68028,4.1163c-3.78229,3.164-6.97986,2.84976-10.77784-.48935-13.04433-11.46844-20.90912-12.06159-36.267-2.894-4.52063,2.69849-7.5796,4.10483-11.52245-1.53889-3.90163-5.58473-10.83272-2.585-16.43952-2.56522-4.94119.01749-4.45578,4.49675-5.06911,7.84037a6.80043,6.80043,0,0,1-2.33863,4.5671c-9.11123,4.31015-13.14926-1.38985-16.57236-8.3342-11.55975-6.81662-24.37414-5.84334-37.00424-6.03249a360.00674,360.00674,0,0,0-72.16055.05375c-14.89.4699-29.99879-1.25069-44.36857,4.41828-8.614,5.69562-17.5754,6.47359-26.90311,1.86609a116.996,116.996,0,0,1,14.21848-42.20565c7.36794,2.32884,14.94675,2.46644,22.594,2.462q137.19024-.08058,274.38049-.0144A212.212,212.212,0,0,0,524.87561,476.59954Z" transform="translate(-42.41068 -230.41988)"/>
    <path class="ffb9799a-d68b-42b5-89a5-ad1637541767" d="M204.46982,631.72335c3.75047-2.3852,7.95356-1.63906,12.01162-1.64016q154.06778-.04251,308.13517-.02727a118.74721,118.74721,0,0,1-21.0724,33.4456q-132.30116.00568-264.60179.12666c-5.35613.01008-10.34674-1.6587-15.58848-1.80575A109.3981,109.3981,0,0,1,204.46982,631.72335Z" transform="translate(-42.41068 -230.41988)"/>
    <path class="a8f8750b-2e27-402e-a757-31660a354e26" d="M524.87561,476.59954c-1.76239,4.14849-5.40381,3.8254-8.96358,3.825q-150.53358-.01668-301.06717-.041c-4.28884-.00177-9.13667.66028-10.64592-5.22094,2.20556-8.18043,7.29826-14.70791,12.2219-21.3322,96.02428,1.76588,192.05451.66739,288.08252.56039,2.95933-.00327,5.848.03694,8.62682,1.15466C518.298,461.86511,521.85824,469.081,524.87561,476.59954Z" transform="translate(-42.41068 -230.41988)"/>
    <path class="b151da89-a285-41dd-9733-4e7b4148a649" d="M513.13018,455.54542a52.3668,52.3668,0,0,1-15.5546,2.04535q-134.122-.12842-268.24433-.06678c-4.64443-.0004-9.51252.69811-12.91039-3.69355,2.28892-5.62548,6.425-9.88163,10.51352-14.17306,2.8317,3.785,6.91693,3.80321,11.08318,3.80223q126.43218-.03,252.86425.062c3.91751.00471,7.44633-1.237,11.15611-1.89842Q507.58413,448.58429,513.13018,455.54542Z" transform="translate(-42.41068 -230.41988)"/>
    <path class="a1fd569f-304b-49bb-8fdf-49b803d1427f" d="M189.98046,517.36825c4.86486.00658,9.75254-.27718,14.58812.10238,4.7279.37106,8.23884-.83474,10.21622-5.352,2.60258,2.89758,2.56007,6.51225,2.3622,9.99229-.3978,6.99692,2.76552,8.10768,8.59884,5.80229,6.41717-2.53615,13.1645-2.62821,19.93784-2.27407a18.64878,18.64878,0,0,1,9.21458,2.57594c3.54368,2.24172,7.16206,4.84788,6.62654,9.54275-.57675,5.05631-5.39,4.53685-8.92416,5.41365-4.28234,1.06241-8.71112,1.126-13.06577,1.70007-11.38268,1.50045-21.76129,4.90752-28.39517,15.28662a7.66946,7.66946,0,0,1-4.18981,3.0702c-6.90336.79361-13.88126,2.43431-20.32-1.83211C185.67876,546.563,185.58231,531.79474,189.98046,517.36825Z" transform="translate(-42.41068 -230.41988)"/>
    <path class="e4fb6384-89e9-4cf5-948d-b5431c8e18e0" d="M514.02989,520.95063c8.03705-3.59,16.52342-1.019,24.765-1.80513,4.51839,15.01437,3.79916,30.38432,3.10777,45.75238-7.67642,6.86836-16.11818,5.06024-24.66,2.18112-1.90853-2.43955-2.1168-5.35628-2.14641-8.26169-.10932-10.72637.25986-21.47333-2.0881-32.0625A6.5389,6.5389,0,0,1,514.02989,520.95063Z" transform="translate(-42.41068 -230.41988)"/>
    <path class="abb9b81a-0280-49ad-b1c9-cb449690a359" d="M186.62986,561.3963q10.54327.00343,21.08658.00693a8.00557,8.00557,0,0,1,2.30526,7.12507c-1.06436,7.91827,3.121,15.07979,2.96779,22.82594-.30829,4.05414-2.84243,5.29218-6.50607,5.26054-4.91039-.04247-9.82169.01458-14.73292.029A99.46762,99.46762,0,0,1,186.62986,561.3963Z" transform="translate(-42.41068 -230.41988)"/>
    <path class="b2bf028e-6d9f-4462-abbf-8428e3b04fc4" d="M517.73166,566.6776c8.07011-.41934,16.29538,1.2673,24.17146-1.77972a113.94327,113.94327,0,0,1-5.0687,31.74545c-6.48427,2.17809-12.95166,3.487-19.32172-.36422C513.5351,586.382,513.26454,576.5123,517.73166,566.6776Z" transform="translate(-42.41068 -230.41988)"/>
    <path class="f2bc8f04-2d49-438c-bd9f-aaf4891c9e95" d="M517.73166,566.6776q-.10892,14.80182-.21837,29.60259c-5.44423.15549-10.93833-.09821-16.31994.56285-8.49116,1.043-13.15144-1.41486-11.756-10.804-2.95325-3.43969-2.50087-7.645-2.55472-11.70042-.13179-9.9334.19531-19.87219-.17543-29.80124-.19849-5.31663-1.4426-10.076-8.2292-10.13606-6.8219-.06041-9.12917,3.96159-9.189,10.13356-.09911,10.227.02993,20.45412-.08078,30.68036-.041,3.78295.19644,7.66409-2.55144,10.8238,1.01166,8.45132-2.17571,12.36593-11.11709,10.79618a33.05937,33.05937,0,0,0-9.554-.01932c-5.711.69228-8.03141-1.73693-7.61826-7.254-2.76132-3.1703-2.42627-7.06417-2.45406-10.83541-.07519-10.22116.07149-20.44391-.05659-30.66418-.16334-13.02926-3.48835-15.50343-16.18235-12.245a10.83968,10.83968,0,0,1-4.29989.56309c-2.89469,14.08785-.87289,28.325-1.16731,42.48581-.37368,17.97277-.11553,17.24385-17.82637,18.17288-9.78553.51334-9.17911-4.88729-9.32216-11.02981a154.60406,154.60406,0,0,1-.00435-61.62608c.61679-13.79412.62545-14.07912,15.12987-13.639,5.173.157,14.01022-4.46295,12.11577,8.4956,8.92083-5.12361,15.85254-11.26718,25.69987-10.79067,8.12918.39339,15.2534,2.61424,19.76094,9.47,3.21558,4.89067,5.29293,3.478,8.64852.46571,4.82819-4.33428,10.35922-7.90328,16.799-9.23256,12.12225-2.50216,21.92863,1.2406,28.82159,11.79826C519.31529,535.86521,516.60686,551.42645,517.73166,566.6776Z" transform="translate(-42.41068 -230.41988)"/>
    <path class="f2bc8f04-2d49-438c-bd9f-aaf4891c9e95" d="M212.98949,591.35424c-6.6447-9.12388-6.058-19.52-5.27307-29.951,6.62879-14.03436,19.433-17.5329,33.17393-19.36753,4.92995-.65824,9.87512-1.42442,14.83246-1.599,6.07929-.214,5.37691-3.14255,2.97072-6.66777-2.67141-3.91385-6.83121-5.24573-11.36492-5.79834a51.63324,51.63324,0,0,0-26.63653,4.08049c-4.51985,1.90227-6.65107,1.08771-6.39519-4.13073.25807-5.26255.33275-10.53412.48786-15.8017a152.4517,152.4517,0,0,1,45.4263-3.40151c11.44239.1394,20.76126,4.0565,26.07284,14.87262,1.49651,3.04728,3.4536,6.16686,1.0347,9.68625-.07672,18.67276-.33591,37.34764-.11824,56.017.06476,5.55415-1.3572,8.08582-7.29541,7.53906-4.632-.42651-9.33521-.03906-14.005-.1197-1.42707-.02464-3.96883-.11716-4.10651-.65927-2.84261-11.19075-7.562-2.29558-10.97356-.8397C237.39405,600.94274,224.81657,600.3318,212.98949,591.35424Z" transform="translate(-42.41068 -230.41988)"/>
    <path class="f2bc8f04-2d49-438c-bd9f-aaf4891c9e95" d="M334.675,508.65006a85.54352,85.54352,0,0,1,37.9201,5.40315,47.48681,47.48681,0,0,1,2.67106,19.24565c-.42108,6.09149-3.401,7.51347-8.97149,4.68149-4.14289-2.10619-7.743-5.19458-12.36209-6.48281-13.12656-3.6609-23.54414,2.98223-25.51292,16.39305a43.89637,43.89637,0,0,0-.324,6.11951c-.119,19.14335,12.2951,27.52086,30.32938,20.55714,3.24181-1.2518,5.90421-3.89551,9.62141-3.97256,1.419.00575,3.45269-.59648,4.15752.11565,4.65853,4.70647.90366,22.39043-5.29648,24.541-19.24256,6.67445-37.69681,4.32626-55.36734-5.45839-5.8559.02635-7.59389-4.7783-9.80568-8.70444-6.4032-11.36636-7.34822-23.79059-6.53775-36.48926C298.311,523.45973,310.68448,512.19728,334.675,508.65006Z" transform="translate(-42.41068 -230.41988)"/>
    <path class="a63fc6d1-101a-4cbb-a923-19176d8ecc5a" d="M368.0465,570.59468c-10.96883,10.53193-27.24706,11.91423-36.32195,3.08444-8.70313-8.46817-8.66465-30.47931.06965-39.82888,7.31511-7.83045,21.00772-7.822,32.29072-.14786,2.52661,1.7185,4.762,5.74164,8.07962,3.99888,3.202-1.68207,1.387-5.852,1.40882-8.87319.03553-4.92466.90592-9.95948-.97544-14.77462.66788.51885,1.96091,1.09709,1.918,1.54829-.98845,10.38777,6.21769,8.93678,12.53863,8.78157q.0023,30.813.00454,61.62607c-9.42583,1.749-13.49246-1.6314-12.1183-11.60744C375.68659,568.98761,373.45012,566.251,368.0465,570.59468Z" transform="translate(-42.41068 -230.41988)"/>
    <path class="b297c298-f78b-4cb9-bad3-16f50b6dc7ab" d="M415.37459,536.38048c4.88336-5.3967,11.1319-6.70115,17.52206-4.19823,6.40392,2.50821,5.68931,8.97388,5.71553,14.43635.06885,14.31377-.14377,28.62885-.24449,42.9434-22.78037.03423-22.76159.0342-22.79953-22.59709C415.55107,556.77,415.442,546.57529,415.37459,536.38048Z" transform="translate(-42.41068 -230.41988)"/>
    <path class="a63fc6d1-101a-4cbb-a923-19176d8ecc5a" d="M466.65682,586.03907c-.1119-14.57113.10136-29.15477-.45959-43.7086-.32785-8.50561,4.72645-10.395,11.32514-11.07392,7.43913-.76543,11.98429,2.48785,12.0555,10.19846.13738,14.85967-.07358,29.72259-.14033,44.58408Q478.047,586.03906,466.65682,586.03907Z" transform="translate(-42.41068 -230.41988)"/>
    <path class="a0605bbb-9550-4c81-b918-07c16e9c5701" d="M334.675,508.65006c-13.91367,3.61908-26.17088,9.43848-33.20438,23.13278-1.99831,3.89072-3.73751,7.64087-4.00211,12.00394-2.90536,2.33344-5.79637,2.32544-8.67281-.05319-.54222-3.479,1.179-7.27778-1.47765-10.45783-2.05012-15.88825-13.91469-20.954-27.10509-24.55916A316.41326,316.41326,0,0,1,334.675,508.65006Z" transform="translate(-42.41068 -230.41988)"/>
    <path class="b147586c-7d16-4d6b-8711-5b5cfe9f8694" d="M288.7957,543.73359q4.33655.02659,8.673.05322c-.3547,14.1963-.01986,28.20473,8.7945,40.46281a20.9752,20.9752,0,0,0,5.27726,5.54295c-6.09754,6.31693-13.64894,2.91523-20.527,2.62577-3.19745-.13453-2.20774-4.23815-2.221-6.68678C288.717,571.73263,288.77984,557.733,288.7957,543.73359Z" transform="translate(-42.41068 -230.41988)"/>
    <path class="abb9b81a-0280-49ad-b1c9-cb449690a359" d="M260.1243,565.22446c.67782,5.95069.35005,9.94495-4.57834,12.44559-5.612,2.8475-11.18315,3.615-16.78533.78582-5.175-2.61344-6.30562-10.79989-2.0939-15.24721,5.82824-6.15429,13.965-6.08912,21.31579-5.65459C262.433,557.81714,259.12723,563.58285,260.1243,565.22446Z" transform="translate(-42.41068 -230.41988)"/>
  </g>
</svg>
